<svg width="200" height="66" viewBox="0 0 200 66" fill="none" xmlns="http://www.w3.org/2000/svg">
<path d="M55.682 58.6082C55.0207 58.3735 54.4767 58.1068 54.05 57.8082C53.6447 57.5095 53.3033 57.0188 53.026 56.3362C52.6847 55.3762 52.514 54.2455 52.514 52.9442C52.514 51.6855 52.5887 50.6188 52.738 49.7442C52.8873 48.8482 53.1433 47.9415 53.506 47.0242L53.794 46.3522C54.1353 45.4775 54.3807 44.9015 54.53 44.6242C54.8927 43.7922 55.5327 42.7148 56.45 41.3922C57.2607 40.1548 57.9007 39.2588 58.37 38.7042C58.8393 38.1282 59.2873 37.6695 59.714 37.3282C60.162 36.9868 60.9727 36.4108 62.146 35.6002C62.6367 35.2375 63.202 35.0562 63.842 35.0562C64.3753 35.0562 64.866 35.1948 65.314 35.4722C65.7833 35.7282 66.1353 36.1015 66.37 36.5922C66.6047 36.9975 66.722 37.5415 66.722 38.2242C66.722 39.1842 66.5087 40.1868 66.082 41.2322C65.6553 42.2775 65.1113 43.0988 64.45 43.6962C64.2367 43.8882 64.034 43.9842 63.842 43.9842C63.6073 43.9842 63.298 43.8135 62.914 43.4722C62.722 43.1095 62.6153 42.8962 62.594 42.8322C62.5727 42.7682 62.6153 42.7255 62.722 42.7042C62.914 42.4695 63.1913 42.0215 63.554 41.3602C63.938 40.6775 64.194 40.1442 64.322 39.7602C64.3647 39.6322 64.4073 39.4188 64.45 39.1202C64.6207 38.3735 64.706 37.8722 64.706 37.6162C64.706 37.3602 64.6313 37.1575 64.482 37.0082C64.418 36.9442 64.3327 36.9122 64.226 36.9122C64.0553 36.9122 63.7567 37.0188 63.33 37.2322C62.818 37.4455 62.1673 37.9255 61.378 38.6722C60.5887 39.4188 59.874 40.2295 59.234 41.1042C58.2527 42.3842 57.4953 43.4402 56.962 44.2722C56.45 45.1042 56.0553 45.9468 55.778 46.8002L55.426 47.6322C55.4473 47.7175 55.4153 47.9308 55.33 48.2722C55.2447 48.6135 55.1487 48.8908 55.042 49.1042C54.7433 50.3415 54.594 51.5682 54.594 52.7842C54.594 53.7015 54.6687 54.5122 54.818 55.2162C54.9887 55.9202 55.2233 56.4002 55.522 56.6562C55.6927 56.8055 55.9487 56.8802 56.29 56.8802C56.7167 56.8802 57.2393 56.7735 57.858 56.5602C58.498 56.3468 59.2767 56.0375 60.194 55.6322C60.6847 55.4402 61.1433 55.2162 61.57 54.9602C62.018 54.7042 62.3487 54.4695 62.562 54.2562C63.1167 53.8508 63.5647 53.6482 63.906 53.6482C64.1407 53.5628 64.3007 53.5202 64.386 53.5202C64.4287 53.5202 64.45 53.5522 64.45 53.6162C64.4713 53.6588 64.482 53.7228 64.482 53.8082C64.482 54.1068 64.322 54.4375 64.002 54.8002C63.682 55.1415 63.2553 55.4722 62.722 55.7922C62.2953 56.2188 61.7833 56.5495 61.186 56.7842C60.5033 57.2748 59.7033 57.7122 58.786 58.0962C57.89 58.4802 57.0687 58.6722 56.322 58.6722C56.1513 58.6722 55.938 58.6508 55.682 58.6082ZM68.244 56.8162C68.18 56.8375 68.0733 56.8482 67.924 56.8482C67.5827 56.8482 67.316 56.6775 67.124 56.3362C66.932 55.9948 66.836 55.5255 66.836 54.9282C66.836 54.4375 66.9 53.8722 67.028 53.2322C67.2627 52.6135 67.38 52.1655 67.38 51.8882C67.444 51.4828 67.6573 50.7575 68.02 49.7122C68.404 48.6455 68.6493 48.0055 68.756 47.7922C68.8413 47.7922 68.916 47.7282 68.98 47.6002C69.044 47.4508 69.076 47.2908 69.076 47.1202C69.076 46.9282 69.108 46.7362 69.172 46.5442C69.2573 46.3308 69.3427 46.1815 69.428 46.0962C69.428 46.0322 69.4493 45.9148 69.492 45.7442C69.556 45.5735 69.588 45.4562 69.588 45.3922C69.588 45.3495 69.6093 45.2748 69.652 45.1682C69.716 45.0402 69.748 44.9442 69.748 44.8802C70.0893 44.2188 70.6867 42.7362 71.54 40.4322C72.3933 38.1068 72.82 36.8162 72.82 36.5602C72.82 36.2188 72.9907 36.0482 73.332 36.0482C73.4387 35.9415 73.6093 35.8882 73.844 35.8882L74.356 36.4002C74.5053 36.5495 74.6013 36.7095 74.644 36.8802C74.6867 37.0295 74.708 37.2642 74.708 37.5842C74.708 37.9042 74.6653 38.1815 74.58 38.4162C74.4947 38.6508 74.2813 39.1308 73.94 39.8562C73.876 40.0055 73.7907 40.1868 73.684 40.4002C73.5773 40.5922 73.46 40.8375 73.332 41.1362C73.2893 41.2428 73.1187 41.6268 72.82 42.2882C72.6067 42.7148 72.5 42.9602 72.5 43.0242C72.5 43.0882 72.4573 43.2268 72.372 43.4402C72.2867 43.6322 72.212 43.8348 72.148 44.0482C71.9773 44.3895 71.7 44.9975 71.316 45.8722C70.9533 46.7255 70.772 47.1948 70.772 47.2802C70.772 47.5148 70.7187 47.6855 70.612 47.7922C70.548 47.7922 70.5053 47.8455 70.484 47.9522C70.4627 48.0375 70.452 48.1015 70.452 48.1442C70.452 48.3575 70.2813 48.9228 69.94 49.8402L69.652 50.7682C69.2467 52.1548 68.9587 53.1682 68.788 53.8082C68.6387 54.4482 68.564 54.9922 68.564 55.4402C68.564 55.9735 68.5427 56.3148 68.5 56.4642C68.4787 56.6135 68.3933 56.7308 68.244 56.8162ZM76.1462 42.8002C75.9969 42.6508 75.8689 42.3948 75.7622 42.0322C75.6556 41.6695 75.6556 41.4882 75.7622 41.4882C75.9329 41.4668 76.1249 41.2855 76.3382 40.9442C76.5729 40.5815 76.6796 40.2828 76.6582 40.0482C76.6582 39.9628 76.6902 39.8882 76.7542 39.8242C76.8182 39.7388 76.8929 39.6855 76.9782 39.6642C77.1489 39.5575 77.2982 39.5042 77.4262 39.5042C77.7889 39.5042 78.1196 39.7602 78.4182 40.2722C78.5462 40.5495 78.6102 40.7948 78.6102 41.0082C78.6102 41.2002 78.5569 41.4028 78.4502 41.6162C78.3436 41.8082 78.1516 42.0642 77.8742 42.3842C77.5116 42.8748 77.1702 43.1202 76.8502 43.1202C76.6369 43.1202 76.4022 43.0135 76.1462 42.8002ZM73.0422 55.7922C72.7436 55.4935 72.5942 55.0668 72.5942 54.5122C72.5942 54.2135 72.6476 53.9575 72.7542 53.7442C72.7542 53.6375 72.7756 53.5095 72.8182 53.3602C72.8609 53.2108 72.8822 53.1148 72.8822 53.0722C72.8609 52.9442 72.9462 52.5922 73.1382 52.0162C73.5222 51.1628 74.0342 49.6588 74.6742 47.5042C74.6742 47.3975 74.7169 47.3122 74.8022 47.2482C74.8876 47.1628 75.0156 47.1095 75.1862 47.0882C75.3569 47.0455 75.4742 47.0242 75.5382 47.0242C75.6662 47.0242 75.7729 47.0775 75.8582 47.1842C75.9649 47.2695 76.1036 47.4402 76.2742 47.6962C76.4022 47.8242 76.4662 48.0162 76.4662 48.2722C76.4662 48.6775 76.3276 49.1682 76.0502 49.7442C75.7729 50.3628 75.5916 50.8962 75.5062 51.3442C75.2502 51.9202 75.0476 52.4535 74.8982 52.9442C74.8556 53.0722 74.7916 53.3282 74.7062 53.7122C74.6209 54.0962 74.5036 54.4055 74.3542 54.6402C74.2262 55.2375 74.1089 55.6535 74.0022 55.8882C73.8956 56.1228 73.7782 56.2402 73.6502 56.2402C73.5009 56.2402 73.2982 56.0908 73.0422 55.7922ZM82.019 56.0802C81.3577 56.0802 80.9203 56.0482 80.707 55.9842C80.4937 55.8988 80.2483 55.7282 79.971 55.4722C79.7577 55.0455 79.5443 54.7255 79.331 54.5122C79.2457 54.2775 79.203 53.9255 79.203 53.4562C79.203 52.9228 79.267 52.3468 79.395 51.7282C79.523 51.0882 79.6937 50.4908 79.907 49.9362C79.9923 49.7655 80.0563 49.6055 80.099 49.4562C80.163 49.3068 80.2057 49.2108 80.227 49.1682C80.227 49.0188 80.4937 48.5602 81.027 47.7922C81.5817 47.0028 82.019 46.4588 82.339 46.1602C82.4883 45.9895 82.7123 45.8082 83.011 45.6162C83.331 45.4242 83.6083 45.2855 83.843 45.2002C84.4403 44.9868 84.963 44.8802 85.411 44.8802C86.0297 44.8802 86.5523 45.1682 86.979 45.7442C87.4483 46.2135 87.683 46.7362 87.683 47.3122C87.683 47.5255 87.651 47.7602 87.587 48.0162C87.3737 48.8695 87.0643 49.2962 86.659 49.2962C86.3817 49.2962 86.115 49.1362 85.859 48.8162C85.7737 48.6028 85.731 48.4642 85.731 48.4002C85.731 48.3362 85.7737 48.1548 85.859 47.8562C85.9017 47.6428 85.923 47.4935 85.923 47.4082C85.923 47.1522 85.8803 46.9282 85.795 46.7362C85.7097 46.5442 85.5923 46.4482 85.443 46.4482C84.9523 46.4482 84.3123 46.8748 83.523 47.7282C83.2457 48.0268 82.883 48.4962 82.435 49.1362C82.0083 49.7762 81.6883 50.3522 81.475 50.8642C81.2617 51.5042 81.091 52.0268 80.963 52.4322C80.835 52.8375 80.7497 53.0935 80.707 53.2002C80.707 53.2428 80.7283 53.3175 80.771 53.4242C80.835 53.5308 80.867 53.6162 80.867 53.6802C80.867 53.8295 80.899 53.9468 80.963 54.0322C81.027 54.1175 81.1443 54.2028 81.315 54.2882C81.5497 54.4588 81.827 54.5442 82.147 54.5442C82.4883 54.5442 82.883 54.4375 83.331 54.2242C83.6083 54.0962 84.003 53.8188 84.515 53.3922L85.283 52.8162C85.4323 52.7095 85.5603 52.6242 85.667 52.5602C85.795 52.4748 85.891 52.4215 85.955 52.4002C86.019 52.3575 86.051 52.3575 86.051 52.4002C86.051 52.4855 86.083 52.5282 86.147 52.5282C86.211 52.5282 86.2857 52.4855 86.371 52.4002C86.563 52.1442 86.8083 52.0162 87.107 52.0162C87.2777 52.0162 87.363 52.0482 87.363 52.1122L87.331 52.2722C87.331 52.3788 87.3843 52.4855 87.491 52.5922C87.491 52.6775 87.459 52.7948 87.395 52.9442C87.3523 53.0722 87.2883 53.1788 87.203 53.2642C87.075 53.4562 86.851 53.6908 86.531 53.9682C86.2323 54.2242 86.0297 54.3948 85.923 54.4802H85.891C85.7843 54.4802 85.635 54.5762 85.443 54.7682C85.123 55.0668 84.8457 55.2162 84.611 55.2162C84.5257 55.2588 84.4297 55.3122 84.323 55.3762C84.2163 55.4188 84.163 55.4722 84.163 55.5362C83.9497 55.7495 83.6937 55.8988 83.395 55.9842C83.0963 56.0482 82.6377 56.0802 82.019 56.0802ZM98.1337 56.8802C98.0697 56.9442 97.8991 56.9762 97.6217 56.9762C97.1524 56.9762 96.7471 56.8908 96.4057 56.7202C96.3417 56.6775 96.2137 56.5708 96.0217 56.4002C95.8511 56.2295 95.7231 56.0802 95.6377 55.9522L94.4537 54.7042C94.3471 54.4908 93.9311 54.0215 93.2057 53.2962C92.9711 52.9975 92.7471 52.7628 92.5337 52.5922C92.3417 52.4002 92.2031 52.3042 92.1177 52.3042L91.0937 55.8242C90.9231 56.1228 90.7844 56.3255 90.6777 56.4322C90.5711 56.5388 90.4431 56.5922 90.2937 56.5922C90.0377 56.5922 89.8244 56.4855 89.6537 56.2722C89.4831 56.0375 89.3977 55.7282 89.3977 55.3442C89.2271 54.7255 89.7924 52.7948 91.0937 49.5522C91.1577 49.2535 91.2644 48.9122 91.4137 48.5282C91.5631 48.1228 91.6697 47.8348 91.7337 47.6642C92.0751 46.5762 92.6617 45.0615 93.4937 43.1202L94.0697 41.8082C94.4324 41.0615 94.8271 40.2828 95.2537 39.4722C96.3844 37.3815 97.0991 36.1655 97.3977 35.8242C97.5684 35.6535 97.7711 35.5682 98.0057 35.5682C98.2404 35.5682 98.4431 35.6535 98.6137 35.8242C98.8271 36.0802 98.9337 36.3042 98.9337 36.4962C98.9337 36.8588 98.6671 37.4668 98.1337 38.3202C97.8991 38.8108 97.6857 39.2162 97.4937 39.5362C97.3231 39.7708 97.1204 40.1122 96.8857 40.5602C96.7364 40.9868 96.5764 41.2002 96.4057 41.2002C96.3844 41.3068 96.3417 41.4455 96.2777 41.6162C96.2351 41.7868 96.1711 41.9575 96.0857 42.1282C96.0217 42.3415 95.9151 42.5975 95.7657 42.8962C95.6164 43.1948 95.5204 43.4082 95.4777 43.5362C95.4351 43.6215 95.3711 43.7495 95.2857 43.9202C95.2217 44.0908 95.1151 44.3042 94.9657 44.5602C94.3684 45.7975 94.0377 46.5655 93.9737 46.8642C93.9737 46.8855 93.9844 46.8962 94.0057 46.8962C94.0484 46.8962 94.1337 46.8535 94.2617 46.7682C94.3897 46.6828 94.4964 46.6082 94.5817 46.5442C95.0937 46.1388 95.6804 45.7442 96.3417 45.3602C97.0031 44.9762 97.5151 44.7522 97.8777 44.6882C98.1551 44.6028 98.4111 44.5602 98.6457 44.5602C98.8804 44.5602 99.0937 44.6028 99.2857 44.6882C99.7764 44.9868 100.096 45.5095 100.246 46.2562C100.246 46.5975 100.075 47.1522 99.7337 47.9202C99.4137 48.6668 99.1151 49.1575 98.8377 49.3922C98.6884 49.4562 98.5711 49.5202 98.4857 49.5842C98.4217 49.6268 98.3791 49.6588 98.3577 49.6802C98.3577 49.7655 98.3151 49.8828 98.2297 50.0322C98.1444 50.1602 98.0271 50.2562 97.8777 50.3202C97.5791 50.6188 97.4297 50.8215 97.4297 50.9282V51.0882C97.3657 51.0882 97.2271 51.1628 97.0137 51.3122C96.8217 51.4615 96.6404 51.6002 96.4697 51.7282C96.2351 51.9628 96.0431 52.1015 95.8937 52.1442C95.7657 52.1868 95.6591 52.2188 95.5737 52.2402C95.5311 52.2828 95.4351 52.3362 95.2857 52.4002C95.1577 52.4428 95.0937 52.4962 95.0937 52.5602C95.0937 52.7095 95.4351 53.1788 96.1177 53.9682C96.8217 54.7362 97.3017 55.2055 97.5577 55.3762C97.7711 55.4828 97.9311 55.6535 98.0377 55.8882C98.1444 56.1015 98.1977 56.3148 98.1977 56.5282C98.1977 56.6348 98.1764 56.7522 98.1337 56.8802ZM94.2937 51.2162C94.6564 50.9602 95.2857 50.4588 96.1817 49.7122C97.0991 48.9442 97.6644 48.4215 97.8777 48.1442C98.0057 48.0162 98.1337 47.8135 98.2617 47.5362C98.3897 47.2375 98.4537 46.9815 98.4537 46.7682C98.4537 46.6828 98.4324 46.5975 98.3897 46.5122C98.3471 46.4055 97.7391 46.6508 96.5657 47.2482C95.9044 47.6322 95.2217 48.1122 94.5177 48.6882C93.8137 49.2642 93.3124 49.7975 93.0137 50.2882C92.9497 50.5015 93.0244 50.7255 93.2377 50.9602C93.4511 51.1735 93.6964 51.2802 93.9737 51.2802C94.1231 51.2802 94.2297 51.2588 94.2937 51.2162ZM111.843 56.5922C111.502 56.5282 111.15 56.3042 110.787 55.9202C110.446 55.5148 110.222 55.1415 110.115 54.8002C110.115 54.7575 110.094 54.7148 110.051 54.6722C110.009 54.6082 109.977 54.5655 109.955 54.5442C109.87 54.4802 109.827 54.1282 109.827 53.4882C109.827 52.9762 109.849 52.4428 109.891 51.8882C109.955 51.3335 110.03 50.8855 110.115 50.5442L110.691 48.8482L111.139 47.5682L112.003 45.7122L110.723 45.3602C110.574 45.3388 110.446 45.2642 110.339 45.1362C110.254 45.0082 110.211 44.8908 110.211 44.7842C110.211 44.6135 110.297 44.4108 110.467 44.1762C110.659 43.9202 110.809 43.7922 110.915 43.7922C110.979 43.8135 111.15 43.8242 111.427 43.8242C112.067 43.8242 112.547 43.7922 112.867 43.7282C113.081 43.6428 113.23 43.4722 113.315 43.2162C113.401 43.0455 113.497 42.8322 113.603 42.5762C113.731 42.3202 113.849 42.0855 113.955 41.8722C114.019 41.7442 114.115 41.5522 114.243 41.2962C114.393 41.0188 114.574 40.7095 114.787 40.3682C114.83 40.3042 114.926 40.1548 115.075 39.9202C115.225 39.6642 115.406 39.4508 115.619 39.2802C115.769 39.1308 115.95 39.0562 116.163 39.0562C116.377 39.0562 116.654 39.1948 116.995 39.4722C117.038 39.5362 117.091 39.6215 117.155 39.7282C117.241 39.8348 117.283 39.9308 117.283 40.0162C117.283 40.1015 117.198 40.2828 117.027 40.5602C116.899 40.8162 116.771 41.0508 116.643 41.2642C116.537 41.4562 116.441 41.6268 116.355 41.7762C116.099 42.2028 115.918 42.5228 115.811 42.7362C115.598 43.0135 115.491 43.2268 115.491 43.3762C115.491 43.5255 115.63 43.6002 115.907 43.6002C116.206 43.6002 116.707 43.5362 117.411 43.4082C117.71 43.3655 117.913 43.3442 118.019 43.3442C118.766 43.3442 119.171 43.6535 119.235 44.2722C119.257 44.4002 119.267 44.5495 119.267 44.7202C119.267 45.0188 119.161 45.2002 118.947 45.2642C118.755 45.3282 118.307 45.3602 117.603 45.3602C116.921 45.4668 116.217 45.5202 115.491 45.5202C115.363 45.5202 115.214 45.5308 115.043 45.5522C114.894 45.5522 114.734 45.5735 114.563 45.6162C114.393 45.6588 114.265 45.7228 114.179 45.8082C114.115 45.8935 114.041 46.0322 113.955 46.2242C113.891 46.2882 113.742 46.5335 113.507 46.9602C113.209 47.5788 113.017 47.9522 112.931 48.0802C112.355 49.7868 111.929 51.5362 111.651 53.3282C111.609 53.6695 111.587 53.8828 111.587 53.9682C111.587 54.2882 111.694 54.5122 111.907 54.6402C112.121 54.7682 112.483 54.8322 112.995 54.8322C113.721 54.8322 114.35 54.7575 114.883 54.6082C115.523 54.3308 116.003 54.0962 116.323 53.9042C116.515 53.7975 116.686 53.7015 116.835 53.6162C117.006 53.5095 117.123 53.4348 117.187 53.3922C117.251 53.2642 117.326 53.2002 117.411 53.2002C117.582 53.2002 117.731 53.3708 117.859 53.7122C117.859 54.0535 117.785 54.3522 117.635 54.6082C117.486 54.8642 117.113 55.1628 116.515 55.5042C115.278 56.2935 114.041 56.6882 112.803 56.6882C112.462 56.6882 112.142 56.6562 111.843 56.5922ZM123.269 55.6002C122.949 55.6642 122.714 55.6962 122.565 55.6962C122.437 55.6962 122.33 55.6748 122.245 55.6322C122.16 55.5682 122.042 55.4615 121.893 55.3122C121.424 55.0775 121.05 54.7468 120.773 54.3202C120.517 53.8722 120.41 53.4775 120.453 53.1362C120.538 52.1548 120.816 51.0775 121.285 49.9042C121.776 48.7308 122.352 47.6962 123.013 46.8002C123.674 45.9042 124.314 45.3495 124.933 45.1362C125.317 44.9868 125.637 44.9122 125.893 44.9122C126.405 44.9122 126.768 45.1255 126.981 45.5522C127.13 45.8508 127.205 46.0748 127.205 46.2242C127.205 46.4802 127.056 46.6508 126.757 46.7362C126.693 46.7362 126.618 46.7682 126.533 46.8322C126.448 46.8962 126.405 46.9602 126.405 47.0242C126.426 47.0455 126.522 47.0562 126.693 47.0562C127.056 47.0562 127.504 47.0028 128.037 46.8962C128.57 46.7895 128.912 46.6722 129.061 46.5442C129.189 46.4802 129.296 46.4482 129.381 46.4482L129.829 46.5122C130.192 46.6188 130.373 46.7468 130.373 46.8962C130.373 46.9815 130.405 47.0668 130.469 47.1522C130.533 47.2162 130.608 47.2482 130.693 47.2482C130.821 47.2695 130.8 47.3548 130.629 47.5042C130.48 47.6535 130.181 47.8988 129.733 48.2402C129.626 48.3042 129.466 48.4002 129.253 48.5282C129.061 48.6562 128.944 48.7628 128.901 48.8482C128.88 48.9335 128.89 49.0508 128.933 49.2002C129.018 49.3922 129.061 49.6268 129.061 49.9042C129.061 50.6082 128.752 51.3868 128.133 52.2402C127.536 53.0935 126.778 53.8402 125.861 54.4802C124.965 55.1202 124.101 55.4935 123.269 55.6002ZM122.725 54.1922C122.853 54.1922 123.173 54.0642 123.685 53.8082C123.962 53.5308 124.186 53.3602 124.357 53.2962C124.506 53.2962 124.709 53.1895 124.965 52.9762C125.221 52.7415 125.616 52.2828 126.149 51.6002C126.554 51.1308 126.853 50.7362 127.045 50.4162C127.258 50.0962 127.365 49.7868 127.365 49.4882C127.365 49.3602 127.354 49.2642 127.333 49.2002C127.312 49.1362 127.237 49.0828 127.109 49.0402C127.002 48.9762 126.896 48.9228 126.789 48.8802C126.597 48.8802 126.416 48.8375 126.245 48.7522C126.096 48.6455 125.872 48.4748 125.573 48.2402L125.061 47.6002L124.517 48.1442C124.005 48.6562 123.482 49.4988 122.949 50.6722C122.416 51.8242 122.117 52.7202 122.053 53.3602C122.032 53.6588 122.074 53.8722 122.181 54.0002C122.309 54.1068 122.49 54.1708 122.725 54.1922ZM141.436 55.8562C141.351 55.8775 141.223 55.8882 141.052 55.8882C140.519 55.8882 140.007 55.6215 139.516 55.0882C139.41 54.9388 139.356 54.8215 139.356 54.7362C139.356 54.6508 139.388 54.5762 139.452 54.5122C139.516 54.4482 139.602 54.4162 139.708 54.4162C139.794 54.4162 139.847 54.3095 139.868 54.0962C139.911 53.8615 139.954 53.5415 139.996 53.1362C140.018 52.8802 140.071 52.6348 140.156 52.4002C140.242 52.1442 140.284 51.9735 140.284 51.8882C140.306 51.8242 140.327 51.6535 140.348 51.3762C140.391 51.0775 140.455 50.8215 140.54 50.6082C140.668 50.0535 140.871 49.2748 141.148 48.2722C141.447 47.2482 141.692 46.4802 141.884 45.9682C141.927 45.5842 142.151 44.9975 142.556 44.2082C142.962 43.0775 143.591 41.5522 144.444 39.6322C145.298 37.7122 145.82 36.6242 146.012 36.3682C146.204 36.2188 146.386 36.1442 146.556 36.1442C146.834 36.1442 147.1 36.2722 147.356 36.5282C147.527 36.7628 147.612 36.9868 147.612 37.2002C147.612 37.4775 147.474 37.7868 147.196 38.1282C147.111 38.2775 147.015 38.4588 146.908 38.6722C146.802 38.8642 146.695 39.0562 146.588 39.2482C146.46 39.6322 146.183 40.2722 145.756 41.1682C145.159 42.4055 144.668 43.5682 144.284 44.6562C144.135 44.9975 143.975 45.3922 143.804 45.8402C143.655 46.2882 143.548 46.5442 143.484 46.6082C143.399 46.9922 143.271 47.3762 143.1 47.7602C142.823 48.6135 142.652 49.2215 142.588 49.5842L143.74 48.4642C144.615 47.5255 145.468 46.7788 146.3 46.2242C147.132 45.6482 147.826 45.3602 148.38 45.3602C148.828 45.3602 149.319 45.5308 149.852 45.8722C150.386 46.2135 150.738 46.5868 150.908 46.9922C151.058 47.3548 151.132 47.6962 151.132 48.0162C151.132 48.9335 150.695 49.9468 149.82 51.0562C149.607 51.4402 149.33 51.8242 148.988 52.2082C148.668 52.5708 148.38 52.8482 148.124 53.0402C147.548 53.5735 147.175 53.9042 147.004 54.0322C146.77 54.2028 146.546 54.3522 146.332 54.4802C146.14 54.5868 145.906 54.6828 145.628 54.7682C145.223 55.0455 144.668 55.2695 143.964 55.4402C143.282 55.5895 142.439 55.7282 141.436 55.8562ZM142.268 54.2242C142.524 54.2242 142.834 54.1815 143.196 54.0962C143.559 54.0108 143.89 53.8615 144.188 53.6482C145.106 53.1788 145.927 52.5815 146.652 51.8562C147.378 51.1308 147.932 50.3948 148.316 49.6482C148.722 48.9015 148.924 48.2722 148.924 47.7602C148.924 47.3335 148.743 47.1202 148.38 47.1202C148.082 47.1202 147.655 47.3015 147.1 47.6642C146.546 48.0268 145.927 48.5388 145.244 49.2002C144.754 49.6482 144.114 50.3308 143.324 51.2482C143.324 51.2482 143.132 51.4722 142.748 51.9202C142.706 51.9842 142.61 52.1442 142.46 52.4002C142.311 52.6348 142.226 52.8482 142.204 53.0402C142.14 53.3602 142.108 53.6162 142.108 53.8082C142.108 54.0855 142.162 54.2242 142.268 54.2242ZM154.446 56.0802C154.361 56.2295 154.254 56.3042 154.126 56.3042C153.998 56.3042 153.86 56.2615 153.71 56.1762C153.582 56.0908 153.508 56.0375 153.486 56.0162C153.166 56.0162 152.964 55.8455 152.878 55.5042C152.857 55.4615 152.846 55.3655 152.846 55.2162C152.846 54.9388 152.974 54.3948 153.23 53.5842L153.454 52.5602C153.668 51.6215 153.86 50.8322 154.03 50.1922C154.094 50.0855 154.222 49.7228 154.414 49.1042C154.542 48.6348 154.713 48.1762 154.926 47.7282C155.182 46.7682 155.588 45.8188 156.142 44.8802C156.185 44.8162 156.27 44.7308 156.398 44.6242C156.526 44.5175 156.622 44.4642 156.686 44.4642C156.814 44.3362 156.953 44.2722 157.102 44.2722C157.252 44.2722 157.444 44.3682 157.678 44.5602C157.892 44.8162 157.998 45.0615 157.998 45.2962C157.998 45.7015 157.732 46.3095 157.198 47.1202L156.686 48.3682C156.644 48.4748 156.537 48.7308 156.366 49.1362C156.196 49.5202 156.089 49.8722 156.046 50.1922C156.324 49.8082 156.825 49.2535 157.55 48.5282C157.977 48.1015 158.329 47.7922 158.606 47.6002C158.884 47.3868 159.289 47.1095 159.822 46.7682C160.206 46.4908 160.548 46.2882 160.846 46.1602C161.145 46.0322 161.476 45.9682 161.838 45.9682C162.03 45.9682 162.18 45.9788 162.286 46.0002C162.585 45.9788 162.82 46.1282 162.99 46.4482C163.161 46.7682 163.268 47.1842 163.31 47.6962C163.054 47.6535 162.873 47.6322 162.766 47.6322C162.34 47.6322 161.956 47.7175 161.614 47.8882C161.294 48.0588 161.028 48.2295 160.814 48.4002C160.601 48.5495 160.462 48.6455 160.398 48.6882C159.246 49.4348 158.35 50.1388 157.71 50.8002C157.049 51.5255 156.58 52.0588 156.302 52.4002C156.046 52.7415 155.854 53.0828 155.726 53.4242C155.662 53.5735 155.481 54.0215 155.182 54.7682C154.884 55.4935 154.638 55.9308 154.446 56.0802ZM166.618 56.0482C165.935 55.7708 165.455 55.4188 165.178 54.9922C164.9 54.5442 164.762 53.9255 164.762 53.1362C164.762 52.7522 164.794 52.3042 164.858 51.7922L164.922 50.6402C164.922 50.4482 164.9 50.2988 164.858 50.1922C164.815 50.0855 164.719 49.9682 164.57 49.8402C164.527 49.7975 164.42 49.6908 164.25 49.5202C164.079 49.3495 164.004 49.2108 164.026 49.1042L163.994 48.9442C163.994 48.7948 164.015 48.6562 164.058 48.5282C164.122 48.4002 164.186 48.3362 164.25 48.3362C164.314 48.3362 164.399 48.3255 164.506 48.3042C164.612 48.2615 164.708 48.2508 164.794 48.2722C165.092 48.2722 165.242 48.3362 165.242 48.4642C165.327 48.6348 165.466 48.6562 165.658 48.5282C165.871 48.3788 166.074 48.1015 166.266 47.6962C166.564 47.2268 167.002 46.7362 167.578 46.2242C168.175 45.6908 168.666 45.3175 169.05 45.1042C169.199 45.0188 169.444 44.9442 169.786 44.8802C170.127 44.7948 170.426 44.7522 170.682 44.7522C171.066 44.7522 171.396 44.8375 171.674 45.0082C171.972 45.1788 172.271 45.4242 172.57 45.7442C172.975 46.0428 173.178 46.5122 173.178 47.1522C173.178 47.6002 173.071 48.0588 172.858 48.5282C172.772 48.8482 172.431 49.2535 171.834 49.7442C171.258 50.2348 170.724 50.5762 170.234 50.7682C169.636 50.9175 168.954 50.9922 168.186 50.9922C167.674 50.9922 167.343 50.9495 167.194 50.8642C166.938 50.7148 166.756 51.2908 166.65 52.5922C166.628 52.7415 166.618 52.9442 166.618 53.2002C166.618 53.5628 166.671 53.8508 166.778 54.0642C166.799 54.0855 166.874 54.1708 167.002 54.3202C167.13 54.4482 167.29 54.5655 167.482 54.6722C167.674 54.7575 167.876 54.8002 168.09 54.8002C168.282 54.8002 168.431 54.7788 168.538 54.7362C168.772 54.6722 168.996 54.5548 169.21 54.3842C169.423 54.1922 169.722 53.9042 170.106 53.5202C170.447 53.1788 170.692 52.9442 170.842 52.8162C170.948 52.6242 171.162 52.5282 171.482 52.5282C171.567 52.5282 171.716 52.5495 171.93 52.5922C172.122 52.7415 172.218 52.9015 172.218 53.0722C172.218 53.2428 172.111 53.5628 171.898 54.0322C171.791 54.2455 171.524 54.5442 171.098 54.9282C170.692 55.2908 170.33 55.5788 170.01 55.7922C169.348 56.1548 168.687 56.3362 168.026 56.3362C167.62 56.3362 167.151 56.2402 166.618 56.0482ZM168.506 49.5522C168.719 49.5095 169.028 49.4562 169.434 49.3922C169.839 49.3282 170.17 49.1895 170.426 48.9762C170.703 48.7415 171.023 48.3468 171.386 47.7922C171.45 47.6215 171.482 47.4508 171.482 47.2802C171.482 46.9602 171.418 46.7362 171.29 46.6082C171.14 46.4588 170.97 46.3842 170.778 46.3842C170.479 46.3842 170.17 46.5122 169.85 46.7682C169.636 46.8322 169.316 47.0668 168.89 47.4722C168.484 47.8775 168.132 48.2828 167.834 48.6882C167.535 49.0722 167.439 49.2962 167.546 49.3602C167.503 49.4242 167.61 49.4775 167.866 49.5202C168.122 49.5415 168.335 49.5522 168.506 49.5522ZM175.008 55.6642C174.944 55.5362 174.837 55.4082 174.688 55.2802C174.56 55.1308 174.496 55.0348 174.496 54.9922C174.496 54.7575 174.443 54.5762 174.336 54.4482C174.293 54.4055 174.272 54.3095 174.272 54.1602C174.272 53.8188 174.432 53.2428 174.752 52.4322C175.093 51.6002 175.531 50.7042 176.064 49.7442C176.192 49.6162 176.352 49.3922 176.544 49.0722C176.757 48.7522 176.896 48.5708 176.96 48.5282C176.96 48.4428 176.992 48.3682 177.056 48.3042C177.12 48.2188 177.195 48.1762 177.28 48.1762V47.9842C177.28 47.7922 177.632 47.3335 178.336 46.6082C179.04 45.8615 179.616 45.3495 180.064 45.0722C180.597 44.7095 181.141 44.5282 181.696 44.5282C182.08 44.5282 182.411 44.6348 182.688 44.8482C182.795 44.9762 183.285 45.4348 184.16 46.2242L185.344 47.2802L184.768 48.8802C184.576 49.4562 184.48 49.9788 184.48 50.4482C184.48 51.2588 184.715 52.0375 185.184 52.7842C185.291 53.0188 185.504 53.2428 185.824 53.4562C186.144 53.6695 186.464 53.7975 186.784 53.8402C187.253 53.9255 187.488 54.1602 187.488 54.5442C187.488 54.9708 187.296 55.2268 186.912 55.3122C186.827 55.3335 186.699 55.3442 186.528 55.3442C185.269 55.3442 184.181 54.4588 183.264 52.6882C183.179 52.5602 183.061 52.3255 182.912 51.9842C182.784 51.6428 182.709 51.4082 182.688 51.2802C182.56 51.4508 182.4 51.6535 182.208 51.8882C182.016 52.1228 181.835 52.3255 181.664 52.4962C179.339 54.8215 177.504 55.9842 176.16 55.9842C175.733 55.9842 175.349 55.8775 175.008 55.6642ZM176.16 53.8722C176.16 53.9788 176.267 54.0108 176.48 53.9682C176.715 53.9255 176.992 53.8188 177.312 53.6482C177.653 53.4775 177.995 53.2535 178.336 52.9762C180.171 51.3975 181.493 50.0215 182.304 48.8482L183.008 47.6962C182.795 47.2482 182.571 46.9282 182.336 46.7362C182.101 46.5228 181.888 46.4162 181.696 46.4162C181.248 46.4162 180.544 46.9815 179.584 48.1122C178.624 49.2215 177.749 50.5335 176.96 52.0482C176.768 52.4108 176.597 52.7842 176.448 53.1682C176.299 53.5308 176.203 53.7655 176.16 53.8722ZM189.137 56.6562C188.881 56.5708 188.614 56.3255 188.337 55.9202C188.059 55.4935 187.921 55.1095 187.921 54.7682L188.369 53.4242L188.977 51.5042C189.169 51.2268 189.318 50.8962 189.425 50.5122C189.553 50.1068 189.627 49.8722 189.649 49.8082C189.862 49.4028 190.289 48.4215 190.929 46.8642L191.537 45.3922C192.134 44.1122 192.625 42.9602 193.009 41.9362L193.521 40.7522L194.129 39.3442C194.875 37.5308 195.291 36.4748 195.377 36.1762C195.377 36.0055 195.409 35.8775 195.473 35.7922C195.558 35.7068 195.643 35.6642 195.729 35.6642C195.835 35.5575 196.006 35.5042 196.241 35.5042C196.347 35.5042 196.518 35.6748 196.753 36.0162C196.987 36.3362 197.105 36.6135 197.105 36.8482C197.105 37.2108 196.934 37.8722 196.593 38.8322C196.251 39.7708 195.793 40.8162 195.217 41.9682C193.126 46.4695 192.166 48.8055 192.337 48.9762C192.422 48.9335 192.603 48.8482 192.881 48.7202C193.158 48.5708 193.446 48.3895 193.745 48.1762C193.937 48.0695 194.118 47.9628 194.289 47.8562C194.459 47.7282 194.609 47.6215 194.737 47.5362C195.398 47.0882 195.803 46.8428 195.953 46.8002C196.081 46.7148 196.326 46.5655 196.689 46.3522C197.073 46.0962 197.275 45.9575 197.297 45.9362C197.553 45.8082 197.766 45.7442 197.937 45.7442C198.065 45.7442 198.182 45.7868 198.289 45.8722C198.395 45.9575 198.523 46.0855 198.673 46.2562C198.801 46.4055 198.865 46.5548 198.865 46.7042C198.865 46.8535 198.779 47.0135 198.609 47.1842C198.438 47.3335 198.15 47.5362 197.745 47.7922C197.467 47.9842 197.179 48.1655 196.881 48.3362C196.582 48.5068 196.294 48.6775 196.017 48.8482C194.481 49.7868 193.691 50.2882 193.649 50.3522C193.691 50.4375 193.787 50.6295 193.937 50.9282C194.107 51.2268 194.267 51.4828 194.417 51.6962L194.897 52.5282C195.153 52.8908 195.281 53.1255 195.281 53.2322C195.473 53.7655 195.729 54.1815 196.049 54.4802C196.39 54.7788 196.753 54.9282 197.137 54.9282C197.329 54.9282 197.553 54.8748 197.809 54.7682C198.129 54.6402 198.385 54.5762 198.577 54.5762C198.875 54.5762 199.078 54.7468 199.185 55.0882C199.249 55.2162 199.281 55.3122 199.281 55.3762C199.281 55.4615 199.131 55.6535 198.833 55.9522C198.278 56.5068 197.713 56.7842 197.137 56.7842C196.945 56.7842 196.721 56.7308 196.465 56.6242C196.145 56.6455 195.739 56.4322 195.249 55.9842C194.779 55.5362 194.118 54.7575 193.265 53.6482C193.265 53.5628 193.147 53.2855 192.913 52.8162C192.827 52.6242 192.731 52.4535 192.625 52.3042C192.518 52.1335 192.443 52.0162 192.401 51.9522C192.401 51.8668 192.347 51.7602 192.241 51.6322C192.155 51.4828 192.091 51.3655 192.049 51.2802C191.814 51.2162 191.622 51.2375 191.473 51.3442C191.345 51.4508 191.217 51.6002 191.089 51.7922C190.982 51.9842 190.897 52.1228 190.833 52.2082C190.619 52.7628 190.406 53.4455 190.193 54.2562C189.979 55.0455 189.905 55.5575 189.969 55.7922C189.969 56.1335 189.915 56.3682 189.809 56.4962C189.702 56.6028 189.478 56.6562 189.137 56.6562Z" fill="black"/>
<path d="M6.47894 2.51227C4.00008 18.625 7.96632 50.8504 43.6622 50.8504" stroke="black" stroke-width="2"/>
<path d="M1.04688 7.35777L6.3399 2.06482L11.6328 7.35777" stroke="black" stroke-width="2"/>
</svg>
