<svg width="24" height="24" viewBox="0 0 24 24" fill="none" xmlns="http://www.w3.org/2000/svg">
<path d="M12.0084 0.999882C5.93287 0.994769 1.005 5.91585 0.999882 11.9914C0.994769 18.0669 5.91585 22.9948 11.9914 22.9999C18.0661 22.9948 22.9905 18.0746 22.9999 11.9999C22.9999 5.92775 18.0805 1.005 12.0084 0.999882ZM11.9914 21.1694C6.92729 21.1694 2.82189 17.064 2.82189 11.9999C2.82189 6.9358 6.92729 2.83039 11.9914 2.83039C17.0537 2.83551 21.1557 6.93752 21.1609 11.9999C21.1609 17.064 17.0555 21.1694 11.9914 21.1694Z" fill="#313645"/>
<path d="M14.9627 11.4637C15.6983 11.049 16.0959 10.219 15.9589 9.38626C15.7886 8.10068 14.2561 7.61535 13.0471 7.51321V5.58057H11.8551V7.4962H11.0548V5.58057H9.86288V7.4962H7.46191V8.73073H8.35588C8.75605 8.73073 8.95186 8.84993 8.95186 9.17344V14.4776C8.95186 14.9203 8.73048 15.0566 8.49209 15.0566H7.58111V16.3166H9.89691V18.2749H11.0974V16.3166H11.8977V18.2749H13.0641V16.3166H13.3195C15.7715 16.3166 16.5889 15.1162 16.5889 13.4815C16.5693 12.5177 15.9009 11.6884 14.9627 11.4637ZM11.0548 8.80735H11.9062C12.5022 8.80735 13.6771 8.90953 13.6771 9.8801C13.718 10.5135 13.259 11.0687 12.6299 11.1487H11.0548V8.80735ZM12.3744 14.9374V14.9288H11.0548V12.3747H12.5873C12.9449 12.3747 14.2901 12.4938 14.2901 13.4474C14.2901 14.401 13.6516 14.9374 12.3744 14.9374Z" fill="#9B89EA"/>
</svg>
