<svg width="24" height="24" viewBox="0 0 24 24" fill="none" xmlns="http://www.w3.org/2000/svg">
<path fill-rule="evenodd" clip-rule="evenodd" d="M18 23H6C4.34315 23 3 21.6569 3 20V19C3 18.4477 3.44772 18 4 18H20C20.5523 18 21 18.4477 21 19V20C21 21.6569 19.6569 23 18 23ZM18 21C18.5523 21 19 20.5523 19 20H5C5 20.5523 5.44772 21 6 21H18Z" fill="#9B89EA"/>
<path fill-rule="evenodd" clip-rule="evenodd" d="M20 13H4C2.34315 13 1 14.3431 1 16V19C1 19.5523 1.44772 20 2 20H22C22.5523 20 23 19.5523 23 19V16C23 14.3431 21.6569 13 20 13ZM21 16V18H3V16C3 15.4477 3.44772 15 4 15H20C20.5523 15 21 15.4477 21 16Z" fill="#313645"/>
<path d="M10.9965 13.917C11.0424 14.4673 10.6334 14.9507 10.083 14.9965C9.53266 15.0424 9.04931 14.6334 9.00344 14.083L8.25258 5.07268C8.08011 3.00305 9.61807 1.18546 11.6877 1.01299C11.7916 1.00433 11.8958 1 12 1C14.0768 1 15.7604 2.68359 15.7604 4.7604C15.7604 4.86463 15.7561 4.96881 15.7474 5.07268L15.3277 10.1086C15.2819 10.659 14.7985 11.068 14.2481 11.0221C13.6978 10.9762 13.2888 10.4929 13.3346 9.94251L13.7543 4.90659C13.7584 4.85797 13.7604 4.80919 13.7604 4.7604C13.7604 3.78816 12.9722 3 12 3C11.9512 3 11.9024 3.00203 11.8538 3.00608C10.8849 3.08682 10.1649 3.93771 10.2457 4.90659L10.9965 13.917Z" fill="#313645"/>
</svg>
