<svg width="48" height="48" viewBox="0 0 48 48" fill="none" xmlns="http://www.w3.org/2000/svg">
<g clip-path="url(#clip0)">
<path d="M27.0924 46.125H8.9435V12.4345H13.9387V17.2426C13.9387 17.7604 14.3585 18.1801 14.8762 18.1801C15.3939 18.1801 15.8137 17.7604 15.8137 17.2426V12.4345H28.6161V17.2426C28.6161 17.7604 29.0359 18.1801 29.5536 18.1801C30.0713 18.1801 30.4911 17.7604 30.4911 17.2426V12.4345H35.3302V22.2547C35.3302 22.7724 35.7499 23.1922 36.2677 23.1922C36.7854 23.1922 37.2052 22.7724 37.2052 22.2547V11.497C37.2052 10.9792 36.7854 10.5595 36.2677 10.5595H30.4911V8.23603C30.491 3.69459 26.7784 0 22.2148 0C21.17 0 20.1698 0.193688 19.2485 0.546844C18.3272 0.193688 17.327 0 16.2822 0C11.7186 0 8.006 3.69459 8.006 8.23603V10.5595H2.22931C1.71162 10.5595 1.29181 10.9792 1.29181 11.497V43.5538C1.29181 46.0054 3.28925 48 5.74437 48H30.2939C28.9192 48 27.721 47.2439 27.0924 46.125ZM22.2148 1.875C25.7444 1.875 28.616 4.72856 28.616 8.23603V10.5595H24.5583V8.23603C24.5583 5.69484 23.3958 3.41878 21.5723 1.90688C21.7837 1.88578 21.998 1.875 22.2148 1.875ZM19.2485 2.60016C21.2887 3.66478 22.6833 5.79159 22.6833 8.23603V10.5595H15.8137V8.23603C15.8137 5.79159 17.2083 3.66478 19.2485 2.60016ZM9.881 8.23603C9.881 4.72856 12.7526 1.875 16.2822 1.875C16.499 1.875 16.7133 1.88578 16.9247 1.90678C15.1012 3.41878 13.9387 5.69475 13.9387 8.23594V10.5594H9.881V8.23603ZM7.0685 46.125H5.74437C4.32312 46.125 3.16681 44.9716 3.16681 43.5538V12.4345H7.0684V46.125H7.0685Z" fill="#7B56EE"/>
<path d="M43.0385 48.0006H29.3564C27.3297 48.0006 25.6867 46.3576 25.6867 44.3309V27.1338H46.7082V44.3309C46.7082 46.3576 45.0652 48.0006 43.0385 48.0006Z" fill="#FFCA45"/>
<path d="M40.2163 32.7134C39.6987 32.7134 39.2788 32.2936 39.2788 31.7759V26.5789C39.2788 24.8882 37.89 23.5127 36.183 23.5127C34.4759 23.5127 33.0872 24.8882 33.0872 26.5789V31.7759C33.0872 32.2936 32.6674 32.7134 32.1497 32.7134C31.6319 32.7134 31.2122 32.2936 31.2122 31.7759V26.5789C31.2122 23.8542 33.4422 21.6377 36.183 21.6377C38.9239 21.6377 41.1538 23.8543 41.1538 26.5789V31.7759C41.1538 32.2937 40.734 32.7134 40.2163 32.7134Z" fill="#7B56EE"/>
</g>
<defs>
<clipPath id="clip0">
<rect width="48" height="48" fill="white"/>
</clipPath>
</defs>
</svg>
