<svg width="24" height="25" viewBox="0 0 24 25" fill="none" xmlns="http://www.w3.org/2000/svg">
<path fill-rule="evenodd" clip-rule="evenodd" d="M13 12.2731H11C9.89543 12.2731 9 13.1685 9 14.2731V21.2731C9 22.3776 9.89543 23.2731 11 23.2731H13C14.1046 23.2731 15 22.3776 15 21.2731V14.2731C15 13.1685 14.1046 12.2731 13 12.2731ZM11 21.2731V14.2731H13V21.2731H11Z" fill="#313645"/>
<path fill-rule="evenodd" clip-rule="evenodd" d="M6 15.2731H4C2.89543 15.2731 2 16.1685 2 17.2731V21.2731C2 22.3776 2.89543 23.2731 4 23.2731H6C7.10457 23.2731 8 22.3776 8 21.2731V17.2731C8 16.1685 7.10457 15.2731 6 15.2731ZM4 21.2731V17.2731H6V21.2731H4Z" fill="#313645"/>
<path d="M20 20.2731C20 19.7208 20.4477 19.2731 21 19.2731C21.5523 19.2731 22 19.7208 22 20.2731V21.2731C22 22.3776 21.1046 23.2731 20 23.2731H18C16.8954 23.2731 16 22.3776 16 21.2731V11.2731C16 10.1685 16.8954 9.27307 18 9.27307H20C21.1046 9.27307 22 10.1685 22 11.2731V16.2731C22 16.8254 21.5523 17.2731 21 17.2731C20.4477 17.2731 20 16.8254 20 16.2731V11.2731H18V21.2731H20V20.2731Z" fill="#313645"/>
<path d="M3.63302 13.232C3.14346 13.4877 2.53936 13.298 2.28371 12.8085C2.02806 12.3189 2.21768 11.7148 2.70724 11.4592L19.9366 2.46193C20.4261 2.20629 21.0302 2.3959 21.2859 2.88546C21.5415 3.37501 21.3519 3.97912 20.8623 4.23476L3.63302 13.232Z" fill="#9B89EA"/>
<path d="M17.6914 3.22424C17.166 3.05378 16.8784 2.48974 17.0488 1.96442C17.2193 1.4391 17.7833 1.15142 18.3087 1.32188L21.3087 2.29533C21.8207 2.4615 22.1094 3.00326 21.9616 3.52096L21.1858 6.23916C21.0342 6.77024 20.4808 7.07788 19.9497 6.92631C19.4187 6.77473 19.111 6.22133 19.2626 5.69025L19.7736 3.89988L17.6914 3.22424Z" fill="#9B89EA"/>
</svg>
