<svg width="54" height="54" viewBox="0 0 54 54" fill="none" xmlns="http://www.w3.org/2000/svg">
<g clip-path="url(#clip0)">
<path d="M53.9711 33.7947C53.8366 30.7007 53.2985 27.2705 52.4914 24.0421C51.6843 20.9481 50.6754 18.056 49.4647 15.8364C44.7565 7.56352 39.6448 8.84144 33.5242 10.4557C31.5737 10.9265 29.4887 11.4646 27.3364 11.6663H26.6638C24.5115 11.4646 22.4264 10.9265 20.4759 10.4557C14.3553 8.9087 9.24362 7.56352 4.53546 15.9037C3.32479 18.1232 2.24864 21.0154 1.50879 24.1093C0.701679 27.3378 0.163604 30.768 0.0290856 33.8619C-0.105433 37.2921 0.230864 39.7807 0.970716 41.5295C1.71057 43.1437 2.78672 44.1526 4.19916 44.5562C5.47709 44.8924 6.9568 44.7579 8.50376 44.0853C11.1269 43.0092 14.1535 40.7224 17.113 37.9647C19.198 35.947 23.099 34.9381 27.0001 34.9381C30.9011 34.9381 34.8022 35.947 36.8872 37.9647C39.8466 40.7224 42.8733 43.0092 45.4964 44.0853C47.0434 44.6907 48.5231 44.8924 49.801 44.5562C51.1462 44.1526 52.2896 43.211 53.0294 41.4622C53.7693 39.7807 54.1056 37.2921 53.9711 33.7947ZM50.7426 40.5206C50.3391 41.4622 49.801 42.0003 49.1284 42.2021C48.3885 42.4039 47.4469 42.2693 46.3708 41.8658C44.0167 40.9242 41.2591 38.8391 38.5687 36.2833C36.0128 33.7274 31.5065 32.4495 27.0001 32.4495C22.4937 32.4495 17.9873 33.7274 15.3642 36.1487C12.6066 38.7046 9.84895 40.8569 7.56213 41.7313C6.48598 42.1348 5.54435 42.3366 4.8045 42.0676C4.13191 41.8658 3.59383 41.3277 3.19027 40.3861C2.6522 39.1081 2.38316 37.0231 2.51768 33.9292C2.6522 31.037 3.12302 27.7413 3.93013 24.6474C4.66998 21.7552 5.61161 19.0649 6.75502 17.0471C10.4543 10.3884 14.7589 11.4646 19.8706 12.8097C21.9556 13.3478 24.1079 13.8859 26.462 14.0877C26.5293 14.0877 26.5293 14.0877 26.5965 14.0877H27.3364C27.4036 14.0877 27.4036 14.0877 27.4709 14.0877C29.8922 13.8859 32.0445 13.3478 34.1296 12.8097C39.2413 11.5318 43.5459 10.3884 47.2451 17.0471C48.3885 19.0649 49.3302 21.688 50.07 24.6474C50.8099 27.7413 51.348 30.9698 51.4825 33.9292C51.617 37.0231 51.348 39.1081 50.7426 40.5206Z" fill="#7B56EE"/>
<path d="M20.8123 20.6789C20.1397 20.0735 19.3326 19.6027 18.3909 19.5354C18.3237 18.6611 17.9201 17.7867 17.3148 17.1814L17.2475 17.1141C16.5077 16.3743 15.566 15.9707 14.4899 15.9707C13.4137 15.9707 12.4049 16.4415 11.7323 17.1141C11.1269 17.7194 10.6561 18.5938 10.5889 19.5354C9.64722 19.6027 8.84011 20.0063 8.16752 20.6116L8.10026 20.6789C7.3604 21.4187 6.95685 22.3603 6.95685 23.4365C6.95685 24.5126 7.42766 25.5215 8.10026 26.1941C8.77285 26.8667 9.57996 27.2703 10.5889 27.3375C10.6561 28.2792 11.0597 29.1535 11.7323 29.7589C12.4721 30.4987 13.4137 30.9023 14.4899 30.9023C15.566 30.9023 16.5749 30.4315 17.2475 29.7589C17.8529 29.0863 18.3237 28.2792 18.3909 27.3375C19.3326 27.2703 20.2069 26.8667 20.8123 26.1941C21.5521 25.4543 21.9557 24.5126 21.9557 23.4365C21.9557 22.3603 21.4849 21.3514 20.8123 20.6789ZM19.1308 24.4454C18.8618 24.7144 18.5255 24.8489 18.1219 24.8489H17.1803C16.5077 24.8489 15.9023 25.387 15.9023 26.1269V27.0012C15.9023 27.4048 15.7678 27.7411 15.4988 28.0101C15.2297 28.2792 14.8934 28.4137 14.4899 28.4137C14.0863 28.4137 13.75 28.2792 13.481 28.0101C13.212 27.7411 13.0774 27.4048 13.0774 27.0012V26.0596C13.0774 25.387 12.5394 24.7817 11.7995 24.7817H10.8579C10.4543 24.7817 10.118 24.6472 9.849 24.3781C9.64722 24.1763 9.44544 23.84 9.44544 23.4365C9.44544 23.0329 9.57996 22.6966 9.849 22.4276C9.849 22.4276 9.849 22.4276 9.91626 22.3603C10.1853 22.1586 10.5216 22.024 10.8579 22.024H11.7995C12.4721 22.024 13.0774 21.486 13.0774 20.7461V19.8045C13.0774 19.4009 13.212 19.0646 13.481 18.7956C13.75 18.5266 14.0863 18.392 14.4899 18.392C14.8934 18.392 15.2297 18.5266 15.4988 18.7956C15.4988 18.7956 15.4988 18.7956 15.566 18.8629C15.7678 19.1319 15.9023 19.4682 15.9023 19.8045V20.7461C15.9023 21.4187 16.4404 22.024 17.1803 22.024H18.1219C18.5255 22.024 18.8618 22.1586 19.1308 22.4276C19.3998 22.6966 19.5343 23.0329 19.5343 23.4365C19.5343 23.84 19.3998 24.1763 19.1308 24.4454Z" fill="#FFCA45"/>
<path d="M38.7032 21.0148C40.0033 21.0148 41.0573 19.9608 41.0573 18.6607C41.0573 17.3606 40.0033 16.3066 38.7032 16.3066C37.4031 16.3066 36.3491 17.3606 36.3491 18.6607C36.3491 19.9608 37.4031 21.0148 38.7032 21.0148Z" fill="#FFCA45"/>
<path d="M38.7032 30.5666C40.0033 30.5666 41.0573 29.5126 41.0573 28.2125C41.0573 26.9124 40.0033 25.8584 38.7032 25.8584C37.4031 25.8584 36.3491 26.9124 36.3491 28.2125C36.3491 29.5126 37.4031 30.5666 38.7032 30.5666Z" fill="#FFCA45"/>
<path d="M33.9278 25.7902C35.2279 25.7902 36.2819 24.7362 36.2819 23.4361C36.2819 22.136 35.2279 21.082 33.9278 21.082C32.6277 21.082 31.5737 22.136 31.5737 23.4361C31.5737 24.7362 32.6277 25.7902 33.9278 25.7902Z" fill="#FFCA45"/>
<path d="M43.4786 25.7902C44.7787 25.7902 45.8327 24.7362 45.8327 23.4361C45.8327 22.136 44.7787 21.082 43.4786 21.082C42.1785 21.082 41.1245 22.136 41.1245 23.4361C41.1245 24.7362 42.1785 25.7902 43.4786 25.7902Z" fill="#FFCA45"/>
</g>
<defs>
<clipPath id="clip0">
<rect width="54" height="54" fill="white"/>
</clipPath>
</defs>
</svg>
