<svg width="20" height="19" viewBox="0 0 20 19" fill="none" xmlns="http://www.w3.org/2000/svg">
<path d="M10.1086 4.74397C9.18398 4.74397 8.28012 5.01816 7.51132 5.53185C6.74252 6.04555 6.14331 6.77568 5.78947 7.62993C5.43563 8.48417 5.34305 9.42416 5.52344 10.331C5.70382 11.2379 6.14908 12.0709 6.80289 12.7247C7.4567 13.3785 8.2897 13.8238 9.19656 14.0041C10.1034 14.1845 11.0434 14.0919 11.8977 13.7381C12.7519 13.3843 13.482 12.7851 13.9957 12.0163C14.5094 11.2475 14.7836 10.3436 14.7836 9.41897C14.7847 8.80475 14.6645 8.19636 14.4299 7.62868C14.1953 7.06101 13.851 6.54522 13.4167 6.1109C12.9824 5.67658 12.4666 5.33226 11.8989 5.09769C11.3312 4.86312 10.7228 4.74292 10.1086 4.74397ZM10.1086 12.458C9.50755 12.458 8.91999 12.2797 8.42023 11.9458C7.92047 11.6119 7.53095 11.1373 7.30094 10.582C7.07092 10.0266 7.01074 9.4156 7.128 8.82609C7.24526 8.23659 7.5347 7.69509 7.95971 7.27008C8.38472 6.84506 8.92622 6.55563 9.51573 6.43837C10.1052 6.32111 10.7163 6.38129 11.2716 6.6113C11.8269 6.84132 12.3015 7.23084 12.6354 7.7306C12.9694 8.23036 13.1476 8.81792 13.1476 9.41897C13.146 10.2245 12.8253 10.9965 12.2558 11.5661C11.6862 12.1357 10.9141 12.4564 10.1086 12.458ZM16.0626 4.55297C16.0626 4.76855 15.9987 4.9793 15.8789 5.15855C15.7591 5.33779 15.5889 5.4775 15.3897 5.56C15.1906 5.6425 14.9714 5.66409 14.76 5.62203C14.5485 5.57997 14.3543 5.47616 14.2019 5.32372C14.0494 5.17128 13.9456 4.97706 13.9036 4.76562C13.8615 4.55418 13.8831 4.33502 13.9656 4.13585C14.0481 3.93668 14.1878 3.76644 14.367 3.64667C14.5463 3.5269 14.757 3.46297 14.9726 3.46297C15.1158 3.46271 15.2577 3.49072 15.39 3.54541C15.5224 3.60009 15.6427 3.68037 15.7439 3.78164C15.8452 3.88291 15.9255 4.00317 15.9802 4.13554C16.0349 4.2679 16.0629 4.40976 16.0626 4.55297ZM19.1626 5.65997C19.1921 4.24265 18.663 2.87059 17.6896 1.83997C16.6572 0.869444 15.2863 0.340844 13.8696 0.366973C12.3646 0.281973 7.85261 0.281973 6.34661 0.366973C4.9303 0.339018 3.55926 0.866262 2.52661 1.83597C1.55452 2.86741 1.02566 4.23892 1.05361 5.65597C0.96261 7.15997 0.96261 11.677 1.05161 13.177C1.02216 14.5943 1.55122 15.9664 2.52461 16.997C3.55743 17.9669 4.92801 18.4954 6.34461 18.47C7.84961 18.555 12.3616 18.555 13.8676 18.47C15.2849 18.4994 16.657 17.9704 17.6876 16.997C18.6589 15.9649 19.1882 14.594 19.1626 13.177C19.2456 11.677 19.2456 7.16497 19.1626 5.65897V5.65997ZM17.2176 14.794C17.0629 15.1862 16.8292 15.5423 16.5311 15.8405C16.233 16.1386 15.8768 16.3722 15.4846 16.527C14.2846 17.003 11.4366 16.893 10.1106 16.893C8.78461 16.893 5.93261 16.999 4.73661 16.527C4.34443 16.3722 3.98824 16.1386 3.69012 15.8405C3.39201 15.5423 3.15834 15.1862 3.00361 14.794C2.52761 13.594 2.63761 10.746 2.63761 9.41997C2.63761 8.09397 2.53161 5.24197 3.00361 4.04597C3.15834 3.6538 3.39201 3.2976 3.69012 2.99949C3.98824 2.70137 4.34443 2.4677 4.73661 2.31297C5.93661 1.83697 8.78461 1.94697 10.1106 1.94697C11.4366 1.94697 14.2886 1.84097 15.4846 2.31297C15.8768 2.4677 16.233 2.70137 16.5311 2.99949C16.8292 3.2976 17.0629 3.6538 17.2176 4.04597C17.6936 5.24597 17.5836 8.09397 17.5836 9.41997C17.5836 10.746 17.6916 13.597 17.2156 14.793L17.2176 14.794Z" fill="white"/>
</svg>
