<svg width="35" height="28" viewBox="0 0 35 28" fill="none" xmlns="http://www.w3.org/2000/svg">
<path opacity="0.2" d="M3.72514 26.288C2.52381 25.5107 1.53448 24.4153 0.757143 23.002C0.0504758 21.5887 -0.161524 20.4227 0.121143 19.504C0.333143 17.6667 0.933811 15.5113 1.92315 13.038L2.66514 10.812C3.30114 8.48 5.42114 5.26467 9.02514 1.166C9.02514 1.02467 9.13114 0.918669 9.34314 0.848003C9.55514 0.706668 9.83781 0.600666 10.1911 0.530001C10.6151 0.388665 11.0745 0.247331 11.5691 0.105999L13.2651 0C14.8198 0 15.7385 0.706667 16.0211 2.12V2.544C16.0211 3.18 15.6678 3.95733 14.9611 4.876L13.5831 7.102C13.3711 7.38467 12.7705 8.30333 11.7811 9.858C10.7918 11.4127 10.1558 12.6493 9.87314 13.568C9.87314 13.8507 9.83781 14.098 9.76714 14.31C10.9685 14.098 12.2051 14.522 13.4771 15.582C14.3958 16.43 14.8551 17.5607 14.8551 18.974C14.8551 20.1753 14.5018 21.412 13.7951 22.684C13.0885 23.8853 12.1345 24.91 10.9331 25.758C9.59048 26.606 8.28314 27.03 7.01114 27.03C6.16315 27.03 5.06781 26.7827 3.72514 26.288ZM22.5931 26.288C21.3918 25.5107 20.4025 24.4153 19.6251 23.002C18.9185 21.5887 18.7065 20.4227 18.9891 19.504C19.2011 17.6667 19.8018 15.5113 20.7911 13.038L21.5331 10.812C22.1691 8.48 24.2891 5.26467 27.8931 1.166C27.8931 1.02467 27.9991 0.918669 28.2111 0.848003C28.4231 0.706668 28.7058 0.600666 29.0591 0.530001C29.4831 0.388665 29.9425 0.247331 30.4371 0.105999L32.1331 0C33.7585 0 34.7125 0.706667 34.9951 2.12V2.544C34.9951 3.18 34.6418 3.95733 33.9351 4.876L32.5571 7.102C32.3451 7.38467 31.7445 8.30333 30.7551 9.858C29.7658 11.4127 29.1298 12.6493 28.8471 13.568C28.8471 13.8507 28.8118 14.098 28.7411 14.31C29.9425 14.098 31.1791 14.522 32.4511 15.582C33.2991 16.3593 33.7231 17.4547 33.7231 18.868C33.7231 20.14 33.3698 21.412 32.6631 22.684C31.9565 23.8853 31.0025 24.91 29.8011 25.758C28.4585 26.606 27.1511 27.03 25.8791 27.03C25.0311 27.03 23.9358 26.7827 22.5931 26.288Z" fill="#1A1728"/>
</svg>
