<svg width="104" height="91" viewBox="0 0 104 91" fill="none" xmlns="http://www.w3.org/2000/svg">
<path d="M23.9707 69.768C23.9174 69.768 23.8587 69.7467 23.7947 69.704C23.7414 69.672 23.6934 69.624 23.6507 69.56C23.5654 69.496 23.5227 69.4 23.5227 69.272C23.5227 69.0267 23.704 68.3813 24.0667 67.336C24.1414 67.0373 24.2214 66.7493 24.3067 66.472C24.3814 66.28 24.4187 66.136 24.4187 66.04C24.4187 65.9547 24.4294 65.8587 24.4507 65.752C24.4827 65.6347 24.4987 65.5547 24.4987 65.512C24.6267 65.512 24.744 65.2933 24.8507 64.856C24.8934 64.696 24.9307 64.5627 24.9627 64.456C24.9947 64.3387 25.016 64.248 25.0267 64.184C25.048 64.152 25.0694 64.104 25.0907 64.04C25.1227 63.976 25.1494 63.9173 25.1707 63.864C25.256 63.608 25.3574 63.3627 25.4747 63.128C25.6027 62.648 25.752 62.1467 25.9227 61.624C26.104 61.0907 26.2534 60.696 26.3707 60.44L26.5627 59.96C26.5734 59.928 26.5947 59.8693 26.6267 59.784C26.6694 59.688 26.6907 59.6187 26.6907 59.576C26.6907 59.5333 26.6747 59.5013 26.6427 59.48C26.5894 59.448 26.5627 59.3947 26.5627 59.32C26.5627 59.1813 26.6907 59 26.9467 58.776C27.0747 58.616 27.1814 58.5147 27.2667 58.472C27.3627 58.4187 27.4907 58.392 27.6507 58.392L28.1627 58.424C28.2907 58.4347 28.632 58.44 29.1867 58.44C29.304 58.4933 29.4427 58.5467 29.6027 58.6C29.9227 58.7067 30.0827 58.7813 30.0827 58.824C30.0827 58.8773 30.0987 58.9147 30.1307 58.936C30.1734 58.9573 30.232 58.9733 30.3067 58.984C30.4134 58.984 30.5787 59.1067 30.8027 59.352C31.0374 59.5867 31.2134 59.832 31.3307 60.088C31.4054 60.2587 31.4587 60.4027 31.4907 60.52C31.5334 60.6267 31.5547 60.7547 31.5547 60.904C31.5547 61.064 31.544 61.192 31.5227 61.288C31.5014 61.4587 31.4747 61.624 31.4427 61.784C31.4107 61.944 31.3734 62.0453 31.3307 62.088C31.16 62.216 31.0747 62.328 31.0747 62.424C31.0747 62.5093 30.936 62.7333 30.6587 63.096C30.392 63.4587 30.136 63.7573 29.8907 63.992C29.6134 64.312 29.2827 64.5947 28.8987 64.84C27.64 65.4053 26.76 65.6773 26.2587 65.656C25.9174 65.7093 25.7094 65.7573 25.6347 65.8C25.56 65.832 25.5014 65.9173 25.4587 66.056C25.4054 66.1947 25.352 66.3387 25.2987 66.488C25.256 66.6373 25.2347 66.7333 25.2347 66.776C25.1707 66.8933 25.0267 67.288 24.8027 67.96C24.5894 68.632 24.4454 69.1333 24.3707 69.464C24.328 69.6027 24.28 69.688 24.2267 69.72C24.1734 69.752 24.088 69.768 23.9707 69.768ZM25.9547 64.808C25.976 64.8293 26.0454 64.84 26.1627 64.84C26.3014 64.84 26.4827 64.8187 26.7067 64.776C26.9414 64.7333 27.1654 64.6693 27.3787 64.584C27.7627 64.456 28.1894 64.248 28.6587 63.96C28.7974 63.864 28.968 63.72 29.1707 63.528C29.384 63.336 29.5867 63.1173 29.7787 62.872C29.8427 62.7653 29.9707 62.5147 30.1627 62.12C30.248 61.9707 30.328 61.7787 30.4027 61.544C30.488 61.3093 30.5307 61.1013 30.5307 60.92C30.5307 60.8347 30.5254 60.7707 30.5147 60.728C30.4614 60.4507 30.3174 60.1947 30.0827 59.96C29.8587 59.7147 29.5974 59.5493 29.2987 59.464C29.0747 59.4213 28.872 59.4 28.6907 59.4C28.552 59.4 28.392 59.416 28.2107 59.448C28.04 59.5013 27.912 59.576 27.8267 59.672C27.752 59.768 27.6507 59.9707 27.5227 60.28C27.2774 60.7493 27.0534 61.2613 26.8507 61.816C26.6587 62.5307 26.4667 63.1227 26.2747 63.592C26.0827 64.0613 25.9707 64.3333 25.9387 64.408V64.472C25.9387 64.536 25.9334 64.6 25.9227 64.664C25.912 64.728 25.9227 64.776 25.9547 64.808ZM33.7361 68.44C33.4694 68.6747 33.1494 68.792 32.7761 68.792C32.5094 68.792 32.2534 68.728 32.0081 68.6C31.7734 68.472 31.5761 68.296 31.4161 68.072C31.2774 67.9013 31.1761 67.7093 31.1121 67.496C31.0481 67.2827 31.0161 67.0213 31.0161 66.712C31.0161 66.6053 31.0267 66.392 31.0481 66.072C31.0801 65.6773 31.2081 65.2667 31.4321 64.84C31.6667 64.4133 31.9547 64.0347 32.2961 63.704C32.6374 63.3627 32.9734 63.128 33.3041 63C33.4747 62.8933 33.6294 62.84 33.7681 62.84C33.8427 62.84 33.9174 62.8453 33.9921 62.856C34.0667 62.8667 34.1467 62.8773 34.2321 62.888C34.4667 62.92 34.6427 62.968 34.7601 63.032C34.8881 63.0853 34.9947 63.1707 35.0801 63.288C35.3467 63.5547 35.4801 63.864 35.4801 64.216C35.4374 64.472 35.2721 64.7653 34.9841 65.096C34.6961 65.4267 34.3494 65.6933 33.9441 65.896C33.7521 65.96 33.5334 65.992 33.2881 65.992C32.9574 65.992 32.6907 65.9227 32.4881 65.784C32.3921 65.752 32.3174 65.736 32.2641 65.736C32.1681 65.736 32.0934 65.8 32.0401 65.928C31.9974 66.056 31.9547 66.2907 31.9121 66.632C31.9014 66.7067 31.8961 66.8133 31.8961 66.952C31.8961 67.496 32.0774 67.7947 32.4401 67.848C32.6854 67.9013 32.8614 67.928 32.9681 67.928C33.0961 67.928 33.2401 67.8853 33.4001 67.8L33.7041 67.624C33.7681 67.592 33.8267 67.5493 33.8801 67.496C33.9334 67.4427 33.9814 67.3947 34.0241 67.352C34.0454 67.3307 34.0774 67.2987 34.1201 67.256C34.1627 67.2027 34.2001 67.1707 34.2321 67.16C34.2747 67.1387 34.3121 67.128 34.3441 67.128C34.3867 67.128 34.4347 67.1547 34.4881 67.208C34.5414 67.2507 34.5841 67.2827 34.6161 67.304C34.7121 67.304 34.7334 67.3733 34.6801 67.512C34.6267 67.64 34.5094 67.7947 34.3281 67.976C34.1574 68.1467 33.9601 68.3013 33.7361 68.44ZM33.7201 65.048C33.9014 64.9733 34.0827 64.84 34.2641 64.648C34.4561 64.456 34.5521 64.296 34.5521 64.168C34.5521 64.04 34.5041 63.9333 34.4081 63.848C34.3121 63.7627 34.1787 63.72 34.0081 63.72C33.8801 63.72 33.7841 63.7307 33.7201 63.752C33.5707 63.7947 33.3947 63.912 33.1921 64.104C32.9894 64.2853 32.8134 64.472 32.6641 64.664C32.5147 64.856 32.4561 64.968 32.4881 65C32.5414 65.096 32.7494 65.144 33.1121 65.144C33.3574 65.144 33.5601 65.112 33.7201 65.048ZM37.8032 68.392C37.6432 68.424 37.5259 68.44 37.4512 68.44C37.3872 68.44 37.3339 68.4293 37.2912 68.408C37.2485 68.376 37.1899 68.3227 37.1152 68.248C36.8805 68.1307 36.6939 67.9653 36.5552 67.752C36.4272 67.528 36.3739 67.3307 36.3952 67.16C36.4379 66.6693 36.5765 66.1307 36.8112 65.544C37.0565 64.9573 37.3445 64.44 37.6752 63.992C38.0059 63.544 38.3259 63.2667 38.6352 63.16C38.8272 63.0853 38.9872 63.048 39.1152 63.048C39.3712 63.048 39.5525 63.1547 39.6592 63.368C39.7339 63.5173 39.7712 63.6293 39.7712 63.704C39.7712 63.832 39.6965 63.9173 39.5472 63.96C39.5152 63.96 39.4779 63.976 39.4352 64.008C39.3925 64.04 39.3712 64.072 39.3712 64.104C39.3819 64.1147 39.4299 64.12 39.5152 64.12C39.6965 64.12 39.9205 64.0933 40.1872 64.04C40.4539 63.9867 40.6245 63.928 40.6992 63.864C40.7632 63.832 40.8165 63.816 40.8592 63.816L41.0832 63.848C41.2645 63.9013 41.3552 63.9653 41.3552 64.04C41.3552 64.0827 41.3712 64.1253 41.4032 64.168C41.4352 64.2 41.4725 64.216 41.5152 64.216C41.5792 64.2267 41.5685 64.2693 41.4832 64.344C41.4085 64.4187 41.2592 64.5413 41.0352 64.712C40.9819 64.744 40.9019 64.792 40.7952 64.856C40.6992 64.92 40.6405 64.9733 40.6192 65.016C40.6085 65.0587 40.6139 65.1173 40.6352 65.192C40.6779 65.288 40.6992 65.4053 40.6992 65.544C40.6992 65.896 40.5445 66.2853 40.2352 66.712C39.9365 67.1387 39.5579 67.512 39.0992 67.832C38.6512 68.152 38.2192 68.3387 37.8032 68.392ZM37.5312 67.688C37.5952 67.688 37.7552 67.624 38.0112 67.496C38.1499 67.3573 38.2619 67.272 38.3472 67.24C38.4219 67.24 38.5232 67.1867 38.6512 67.08C38.7792 66.9627 38.9765 66.7333 39.2432 66.392C39.4459 66.1573 39.5952 65.96 39.6912 65.8C39.7979 65.64 39.8512 65.4853 39.8512 65.336C39.8512 65.272 39.8459 65.224 39.8352 65.192C39.8245 65.16 39.7872 65.1333 39.7232 65.112C39.6699 65.08 39.6165 65.0533 39.5632 65.032C39.4672 65.032 39.3765 65.0107 39.2912 64.968C39.2165 64.9147 39.1045 64.8293 38.9552 64.712L38.6992 64.392L38.4272 64.664C38.1712 64.92 37.9099 65.3413 37.6432 65.928C37.3765 66.504 37.2272 66.952 37.1952 67.272C37.1845 67.4213 37.2059 67.528 37.2592 67.592C37.3232 67.6453 37.4139 67.6773 37.5312 67.688ZM41.0118 72.6C40.9265 72.6 40.8572 72.552 40.8038 72.456C40.7505 72.3813 40.7238 72.2907 40.7238 72.184C40.7238 72.1093 40.7505 71.928 40.8038 71.64C40.9212 71.192 40.9798 70.8827 40.9798 70.712C40.9798 70.6587 40.9905 70.5787 41.0118 70.472C41.0332 70.376 41.0492 70.2853 41.0598 70.2C41.1025 70.1253 41.1398 70.008 41.1718 69.848C41.2145 69.6987 41.2358 69.5653 41.2358 69.448C41.2358 69.3947 41.2518 69.3307 41.2838 69.256C41.3265 69.192 41.3745 69.1387 41.4278 69.096C41.4278 69.032 41.4438 68.936 41.4758 68.808C41.5078 68.6693 41.5292 68.5733 41.5398 68.52C41.5932 68.232 41.8012 67.5493 42.1638 66.472C42.5265 65.3947 42.8358 64.5253 43.0918 63.864C43.2092 63.5973 43.2945 63.352 43.3478 63.128C43.4012 62.904 43.4278 62.728 43.4278 62.6C43.4278 62.5573 43.4385 62.52 43.4598 62.488C43.4918 62.4453 43.5398 62.392 43.6038 62.328C43.6785 62.2533 43.7478 62.216 43.8118 62.216C43.8652 62.216 43.9238 62.2373 43.9878 62.28C44.0518 62.3227 44.1158 62.3707 44.1798 62.424C44.2438 62.52 44.2918 62.6107 44.3238 62.696C44.3665 62.7813 44.3878 62.872 44.3878 62.968C44.3878 63 44.3772 63.1013 44.3558 63.272C44.3558 63.496 44.3078 63.6827 44.2118 63.832C44.1158 63.9707 44.0785 64.0347 44.0998 64.024C44.5798 63.8 45.0065 63.688 45.3798 63.688C45.8278 63.688 46.1745 63.832 46.4198 64.12C46.6758 64.408 46.8038 64.7813 46.8038 65.24C46.8038 65.432 46.7452 65.6667 46.6278 65.944C46.5212 66.2107 46.4145 66.392 46.3078 66.488C46.2438 66.488 46.1585 66.6 46.0518 66.824C45.9132 66.9947 45.6838 67.176 45.3638 67.368C45.0438 67.5493 44.8198 67.6187 44.6918 67.576C44.6812 67.576 44.6652 67.5813 44.6438 67.592C44.6225 67.6027 44.6118 67.6293 44.6118 67.672C44.6118 67.7147 44.4305 67.7947 44.0678 67.912C43.7052 68.0293 43.4065 68.088 43.1718 68.088C43.0438 68.088 42.9478 68.0827 42.8838 68.072C42.8198 68.0507 42.7558 68.0133 42.6918 67.96C42.6172 68.0347 42.5798 68.104 42.5798 68.168C42.5798 68.2853 42.5265 68.4987 42.4198 68.808C42.3132 69.1173 42.2278 69.272 42.1638 69.272C42.1532 69.2827 42.1372 69.304 42.1158 69.336C42.1052 69.368 42.1212 69.4053 42.1638 69.448C42.1638 69.48 42.1585 69.5547 42.1478 69.672C42.1372 69.7893 42.1105 69.88 42.0678 69.944C42.0678 70.04 42.0518 70.168 42.0198 70.328C41.9878 70.4987 41.9505 70.6267 41.9078 70.712C41.9078 70.84 41.8865 70.9627 41.8438 71.08C41.8118 71.208 41.7745 71.272 41.7318 71.272C41.6678 71.2933 41.6358 71.448 41.6358 71.736C41.6252 72.0027 41.5718 72.2107 41.4758 72.36C41.3798 72.5093 41.2678 72.584 41.1398 72.584L41.0118 72.6ZM43.0758 67.24C43.2358 67.24 43.5558 67.16 44.0358 67C44.5265 66.8293 44.8678 66.664 45.0598 66.504C45.2838 66.312 45.4652 66.1093 45.6038 65.896C45.7425 65.672 45.8118 65.448 45.8118 65.224C45.8118 65.0533 45.7638 64.8987 45.6678 64.76C45.5932 64.6427 45.4652 64.584 45.2838 64.584C45.0705 64.584 44.8145 64.6587 44.5158 64.808C44.2278 64.9573 43.9612 65.1547 43.7158 65.4C43.5238 65.592 43.3532 65.8693 43.2038 66.232C43.0545 66.584 42.9798 66.8613 42.9798 67.064C42.9798 67.1813 43.0118 67.24 43.0758 67.24ZM48.0667 68.248C47.9494 68.184 47.864 68.12 47.8107 68.056C47.768 67.992 47.7467 67.9013 47.7467 67.784C47.7467 67.5707 47.8107 67.2293 47.9387 66.76C47.9707 66.4933 48.0027 66.28 48.0347 66.12C48.0774 65.9493 48.1467 65.784 48.2427 65.624C48.2854 65.464 48.36 65.224 48.4667 64.904C48.7014 64.1573 48.8614 63.5813 48.9467 63.176C49.032 62.9413 49.1067 62.7333 49.1707 62.552C49.2347 62.3707 49.2934 62.2053 49.3467 62.056C49.3254 62.12 49.4587 61.7573 49.7467 60.968C49.832 60.712 49.8907 60.5147 49.9227 60.376C50.04 59.896 50.1734 59.5333 50.3227 59.288C50.3974 59.1813 50.4507 59.0907 50.4827 59.016C50.5254 58.9413 50.5627 58.8827 50.5947 58.84C50.5947 58.8187 50.6107 58.8027 50.6427 58.792C50.6747 58.7707 50.712 58.76 50.7547 58.76C50.8827 58.76 50.9894 58.8027 51.0747 58.888C51.128 58.8667 51.192 58.9307 51.2667 59.08C51.352 59.2293 51.3894 59.3467 51.3787 59.432C51.3787 59.5707 51.3414 59.6987 51.2667 59.816C51.224 59.8587 51.176 59.9387 51.1227 60.056C51.0694 60.1627 51.0214 60.2533 50.9787 60.328C50.9574 60.4027 50.92 60.5307 50.8667 60.712C50.824 60.8827 50.7814 61.0267 50.7387 61.144C50.6854 61.272 50.632 61.3947 50.5787 61.512C50.536 61.6187 50.4987 61.7147 50.4667 61.8C50.424 61.9387 50.3494 62.1467 50.2427 62.424C50.0934 62.7867 49.992 63.0693 49.9387 63.272C49.9174 63.336 49.88 63.4693 49.8267 63.672C49.6774 64.2053 49.5334 64.5947 49.3947 64.84C49.3094 64.9787 49.2454 65.1653 49.2027 65.4C49.1707 65.6347 49.1494 65.7787 49.1387 65.832C48.9787 66.312 48.8987 66.5947 48.8987 66.68C48.8774 66.776 48.84 66.9627 48.7867 67.24C48.7227 67.5813 48.6587 67.8267 48.5947 67.976C48.5734 68.2213 48.4934 68.344 48.3547 68.344C48.2694 68.344 48.1734 68.312 48.0667 68.248ZM51.6338 68.616C51.2925 68.4773 51.0525 68.3013 50.9138 68.088C50.7752 67.864 50.7058 67.5547 50.7058 67.16C50.7058 66.968 50.7218 66.744 50.7538 66.488L50.7858 65.912C50.7858 65.816 50.7752 65.7413 50.7538 65.688C50.7325 65.6347 50.6845 65.576 50.6098 65.512C50.5885 65.4907 50.5352 65.4373 50.4498 65.352C50.3645 65.2667 50.3272 65.1973 50.3378 65.144L50.3218 65.064C50.3218 64.9893 50.3325 64.92 50.3538 64.856C50.3858 64.792 50.4178 64.76 50.4498 64.76C50.4818 64.76 50.5245 64.7547 50.5778 64.744C50.6312 64.7227 50.6792 64.7173 50.7218 64.728C50.8712 64.728 50.9458 64.76 50.9458 64.824C50.9885 64.9093 51.0578 64.92 51.1538 64.856C51.2605 64.7813 51.3618 64.6427 51.4578 64.44C51.6072 64.2053 51.8258 63.96 52.1138 63.704C52.4125 63.4373 52.6578 63.2507 52.8498 63.144C52.9245 63.1013 53.0472 63.064 53.2178 63.032C53.3885 62.9893 53.5378 62.968 53.6658 62.968C53.8578 62.968 54.0232 63.0107 54.1618 63.096C54.3112 63.1813 54.4605 63.304 54.6098 63.464C54.8125 63.6133 54.9138 63.848 54.9138 64.168C54.9138 64.392 54.8605 64.6213 54.7538 64.856C54.7112 65.016 54.5405 65.2187 54.2418 65.464C53.9538 65.7093 53.6872 65.88 53.4418 65.976C53.1432 66.0507 52.8018 66.088 52.4178 66.088C52.1618 66.088 51.9965 66.0667 51.9218 66.024C51.7938 65.9493 51.7032 66.2373 51.6498 66.888C51.6392 66.9627 51.6338 67.064 51.6338 67.192C51.6338 67.3733 51.6605 67.5173 51.7138 67.624C51.7245 67.6347 51.7618 67.6773 51.8258 67.752C51.8898 67.816 51.9698 67.8747 52.0658 67.928C52.1618 67.9707 52.2632 67.992 52.3698 67.992C52.4658 67.992 52.5405 67.9813 52.5938 67.96C52.7112 67.928 52.8232 67.8693 52.9298 67.784C53.0365 67.688 53.1858 67.544 53.3778 67.352C53.5485 67.1813 53.6712 67.064 53.7458 67C53.7992 66.904 53.9058 66.856 54.0658 66.856C54.1085 66.856 54.1832 66.8667 54.2898 66.888C54.3858 66.9627 54.4338 67.0427 54.4338 67.128C54.4338 67.2133 54.3805 67.3733 54.2738 67.608C54.2205 67.7147 54.0872 67.864 53.8738 68.056C53.6712 68.2373 53.4898 68.3813 53.3298 68.488C52.9992 68.6693 52.6685 68.76 52.3378 68.76C52.1352 68.76 51.9005 68.712 51.6338 68.616ZM52.5778 65.368C52.6845 65.3467 52.8392 65.32 53.0418 65.288C53.2445 65.256 53.4098 65.1867 53.5378 65.08C53.6765 64.9627 53.8365 64.7653 54.0178 64.488C54.0498 64.4027 54.0658 64.3173 54.0658 64.232C54.0658 64.072 54.0338 63.96 53.9698 63.896C53.8952 63.8213 53.8098 63.784 53.7138 63.784C53.5645 63.784 53.4098 63.848 53.2498 63.976C53.1432 64.008 52.9832 64.1253 52.7698 64.328C52.5672 64.5307 52.3912 64.7333 52.2418 64.936C52.0925 65.128 52.0445 65.24 52.0978 65.272C52.0765 65.304 52.1298 65.3307 52.2578 65.352C52.3858 65.3627 52.4925 65.368 52.5778 65.368ZM59.6079 69.144C59.4693 69.1013 59.3679 69.0213 59.3039 68.904C59.2399 68.7867 59.2026 68.6213 59.1919 68.408C59.1919 68.2587 59.2239 68.0347 59.2879 67.736C59.3519 67.4267 59.3893 67.2347 59.3999 67.16L59.4159 67.032C59.4266 66.9787 59.4426 66.8827 59.4639 66.744C59.4959 66.6053 59.5119 66.5733 59.5119 66.648L59.6239 66.216C59.6986 65.928 59.7733 65.6613 59.8479 65.416C59.9226 65.1707 59.9759 64.9947 60.0079 64.888L60.1999 64.344C60.5626 63.2987 60.8613 62.6213 61.0959 62.312C61.1066 62.2693 61.1226 62.232 61.1439 62.2C61.1653 62.1573 61.1813 62.1147 61.1919 62.072C61.2026 61.944 61.2399 61.832 61.3039 61.736C61.3999 61.576 61.4799 61.432 61.5439 61.304L61.6079 61.128C61.7786 60.7653 61.9279 60.488 62.0559 60.296C62.0986 60.2 62.1573 60.088 62.2319 59.96C62.3173 59.832 62.3866 59.7413 62.4399 59.688L62.4239 59.672C62.4773 59.5867 62.5359 59.5333 62.5999 59.512C62.6746 59.4907 62.7706 59.48 62.8879 59.48C63.0266 59.48 63.1066 59.5013 63.1279 59.544C63.1599 59.576 63.1759 59.672 63.1759 59.832V59.976C63.1759 60.0827 63.1653 60.1627 63.1439 60.216C63.1333 60.2693 63.0959 60.3333 63.0319 60.408H63.0479C63.0479 60.408 63.0373 60.4347 63.0159 60.488C62.9946 60.5413 62.9733 60.5893 62.9519 60.632C62.8773 60.824 62.8239 60.9307 62.7919 60.952C62.7279 61.0267 62.5093 61.448 62.1359 62.216C61.7733 62.9733 61.5279 63.512 61.3999 63.832L61.3199 64.072L61.2879 64.168C61.1706 64.424 61.1066 64.5627 61.0959 64.584L60.8239 65.512L60.7439 65.848L60.5999 66.2L60.5039 66.504C60.4826 66.5467 60.4666 66.6 60.4559 66.664C60.4453 66.728 60.4239 66.776 60.3919 66.808L60.3759 66.888C60.2479 67.4747 60.1626 68.04 60.1199 68.584L60.1039 68.648C60.0826 68.8293 60.0453 68.9627 59.9919 69.048C59.9386 69.1333 59.8639 69.176 59.7679 69.176C59.7466 69.176 59.6933 69.1653 59.6079 69.144ZM63.3991 68.76C63.2711 68.76 63.1697 68.7387 63.0951 68.696C63.0204 68.6533 62.9137 68.5733 62.7751 68.456C62.4231 68.0827 62.2471 67.7413 62.2471 67.432C62.2471 67.3573 62.2524 67.304 62.2631 67.272C62.2951 67.1973 62.3057 67.1227 62.2951 67.048C62.2951 66.9733 62.2951 66.9253 62.2951 66.904C62.2524 66.8613 62.2311 66.8347 62.2311 66.824C62.2311 66.8027 62.2417 66.7867 62.2631 66.776C62.2844 66.7547 62.3004 66.7333 62.3111 66.712C62.3751 66.712 62.3964 66.6533 62.3751 66.536C62.3537 66.4507 62.3964 66.264 62.5031 65.976C62.6097 65.6773 62.7431 65.4053 62.9031 65.16C63.0204 64.968 63.1911 64.728 63.4151 64.44C63.6497 64.152 63.8577 63.9333 64.0391 63.784C64.2951 63.56 64.5244 63.3947 64.7271 63.288C64.9297 63.1813 65.1537 63.1013 65.3991 63.048C65.6124 62.9947 65.7564 62.968 65.8311 62.968C65.9057 62.968 65.9697 62.9893 66.0231 63.032C66.0871 63.064 66.1671 63.128 66.2631 63.224C66.5511 63.352 66.7484 63.5173 66.8551 63.72C66.9724 63.912 67.0311 64.216 67.0311 64.632C67.0311 65.3253 66.7484 66.0773 66.1831 66.888C65.9377 67.24 65.7084 67.512 65.4951 67.704C65.2817 67.8853 64.9991 68.0827 64.6471 68.296C64.4231 68.456 64.2151 68.5733 64.0231 68.648C63.8417 68.712 63.6337 68.7493 63.3991 68.76ZM64.9351 67.064C65.1911 66.776 65.3937 66.504 65.5431 66.248C65.7031 65.992 65.8524 65.6667 65.9911 65.272C66.0444 65.0907 66.0711 64.872 66.0711 64.616C66.0711 64.296 66.0284 64.1147 65.9431 64.072C65.8364 64.0187 65.7297 63.992 65.6231 63.992C65.3884 63.992 65.1431 64.0987 64.8871 64.312C64.5777 64.5787 64.3004 64.9093 64.0551 65.304C63.8097 65.688 63.5591 66.168 63.3031 66.744C63.1964 66.968 63.1431 67.1867 63.1431 67.4C63.1431 67.56 63.1804 67.688 63.2551 67.784C63.3404 67.88 63.4524 67.928 63.5911 67.928C63.9431 67.928 64.3911 67.64 64.9351 67.064ZM69.3418 68.024C69.2245 67.9387 69.0752 67.5813 68.8938 66.952C68.7232 66.3227 68.5898 65.7147 68.4938 65.128C68.4512 64.904 68.3658 64.6 68.2378 64.216C68.1952 64.0453 68.1738 63.928 68.1738 63.864C68.1738 63.672 68.2538 63.528 68.4138 63.432C68.4565 63.4 68.5152 63.3787 68.5898 63.368C68.6752 63.3467 68.7445 63.3413 68.7978 63.352C69.0325 63.4373 69.2458 64.088 69.4378 65.304C69.4698 65.6133 69.5178 65.8907 69.5818 66.136C69.6458 66.3813 69.6832 66.5253 69.6938 66.568C69.7258 66.632 69.7632 66.7013 69.8058 66.776C69.8485 66.84 69.8965 66.872 69.9498 66.872C69.9818 66.872 70.0192 66.8507 70.0618 66.808C70.2645 66.6053 70.4832 66.3493 70.7178 66.04C70.9738 65.688 71.1498 65.4533 71.2458 65.336C71.3632 65.1547 71.5178 64.9413 71.7098 64.696C71.7418 64.6533 71.8165 64.552 71.9338 64.392C72.0512 64.232 72.1632 64.0987 72.2698 63.992C72.3765 63.8747 72.4672 63.8053 72.5418 63.784C72.5738 63.7733 72.6218 63.768 72.6858 63.768C72.8672 63.768 72.9578 63.8427 72.9578 63.992C72.9578 64.1307 72.8618 64.3387 72.6698 64.616C72.6058 64.7013 72.5365 64.8187 72.4618 64.968C72.3978 65.1067 72.3552 65.1867 72.3338 65.208C72.2165 65.4427 71.9978 65.7733 71.6778 66.2C71.3685 66.6267 71.1605 66.8933 71.0538 67C71.0325 67.0213 70.9418 67.096 70.7818 67.224C70.6325 67.352 70.4938 67.5067 70.3658 67.688C70.0245 68.008 69.7792 68.168 69.6298 68.168C69.5338 68.168 69.4378 68.12 69.3418 68.024ZM74.8467 69.048C74.388 69.048 74.0094 68.8773 73.7107 68.536C73.412 68.1947 73.2627 67.768 73.2627 67.256C73.2627 66.744 73.3747 66.184 73.5987 65.576C73.8334 64.9573 74.132 64.4027 74.4947 63.912C74.8574 63.4213 75.2254 63.0907 75.5987 62.92C75.812 62.8027 76.052 62.744 76.3187 62.744C76.5214 62.744 76.7507 62.8027 77.0067 62.92C77.188 62.9947 77.3267 63.0853 77.4227 63.192C77.5187 63.2987 77.604 63.464 77.6787 63.688C77.7107 63.88 77.7267 64.0133 77.7267 64.088C77.7267 64.152 77.7 64.2907 77.6467 64.504C77.5187 64.8987 77.348 65.2347 77.1347 65.512C76.932 65.7787 76.6654 66.008 76.3347 66.2C76.164 66.3067 75.9507 66.36 75.6947 66.36C75.4707 66.36 75.2574 66.3227 75.0547 66.248C74.8627 66.1627 74.7134 66.04 74.6067 65.88L74.4947 65.752L74.4467 65.88C74.2227 66.456 74.1107 66.9467 74.1107 67.352C74.1107 67.6293 74.164 67.8533 74.2707 68.024C74.3454 68.1413 74.5267 68.2 74.8147 68.2C75.028 68.2 75.1827 68.1787 75.2787 68.136C75.4387 68.0827 75.5774 68.0187 75.6947 67.944C75.8227 67.8587 75.9454 67.7733 76.0627 67.688L76.1267 67.656H76.1107C76.2387 67.592 76.3454 67.5333 76.4307 67.48C76.516 67.4267 76.5747 67.3893 76.6067 67.368C76.628 67.368 76.6494 67.3627 76.6707 67.352C76.692 67.3413 76.7134 67.32 76.7347 67.288C76.8307 67.2453 76.9427 67.2613 77.0707 67.336C77.1987 67.4107 77.2627 67.5067 77.2627 67.624C77.2414 67.7093 77.1454 67.848 76.9747 68.04C76.804 68.232 76.676 68.3333 76.5907 68.344C76.58 68.344 76.5427 68.36 76.4787 68.392C76.4147 68.424 76.372 68.4507 76.3507 68.472H76.3667C76.2707 68.6 76.1747 68.664 76.0787 68.664H75.9507C75.908 68.7493 75.764 68.8347 75.5187 68.92C75.284 69.0053 75.06 69.048 74.8467 69.048ZM75.5667 65.528C75.8867 65.528 76.18 65.3467 76.4467 64.984C76.7027 64.6427 76.8307 64.3013 76.8307 63.96C76.8307 63.7787 76.7934 63.6507 76.7187 63.576C76.6547 63.544 76.596 63.528 76.5427 63.528C76.4894 63.528 76.3987 63.544 76.2707 63.576C76.132 63.608 75.9187 63.7573 75.6307 64.024C75.3427 64.28 75.1294 64.5093 74.9907 64.712L74.7827 65.048C74.868 65.016 74.948 65 75.0227 65C75.108 64.9893 75.156 64.9947 75.1667 65.016C75.1667 65.1653 75.204 65.288 75.2787 65.384C75.3534 65.48 75.4494 65.528 75.5667 65.528ZM84.3888 68.968C84.2395 68.9253 84.1168 68.8773 84.0208 68.824C83.9248 68.7707 83.7968 68.6693 83.6368 68.52C83.4448 68.264 83.3168 68.0293 83.2528 67.816C83.1995 67.592 83.1728 67.24 83.1728 66.76C83.1728 66.504 83.3168 65.8 83.6048 64.648C83.5835 64.7227 83.6208 64.568 83.7168 64.184C83.7488 64.0667 83.7062 63.992 83.5888 63.96C83.4715 63.928 83.3062 63.912 83.0928 63.912C82.9115 63.912 82.8048 63.9013 82.7728 63.88C82.7408 63.8693 82.7195 63.8533 82.7088 63.832C82.7088 63.8107 82.7088 63.7947 82.7088 63.784C82.7088 63.7307 82.6875 63.6667 82.6448 63.592C82.6342 63.5813 82.6288 63.5653 82.6288 63.544C82.6288 63.4907 82.6555 63.432 82.7088 63.368C82.7728 63.304 82.8475 63.2667 82.9328 63.256C82.9862 63.2453 83.1088 63.2293 83.3008 63.208C83.4928 63.1867 83.6742 63.144 83.8448 63.08C84.0155 63.016 84.1488 62.9253 84.2448 62.808C84.3835 62.456 84.5595 62.0613 84.7728 61.624C84.9862 61.176 85.1302 60.9093 85.2048 60.824C85.3755 60.7387 85.4928 60.696 85.5568 60.696C85.6208 60.696 85.6742 60.7173 85.7168 60.76C85.7595 60.8027 85.8182 60.8773 85.8928 60.984C85.9035 61.0053 85.9302 61.0427 85.9728 61.096C86.0155 61.1493 86.0368 61.2027 86.0368 61.256C86.0368 61.3413 85.9942 61.4693 85.9088 61.64C85.8342 61.8107 85.6795 62.1093 85.4448 62.536L85.2368 62.936C85.2688 62.9467 85.3435 62.952 85.4608 62.952C85.5782 62.952 85.6742 62.9467 85.7488 62.936C85.9835 62.8933 86.2022 62.872 86.4048 62.872C86.5115 62.872 86.5862 62.8773 86.6288 62.888C86.8742 62.888 87.0502 62.936 87.1568 63.032C87.2742 63.1173 87.3435 63.2667 87.3648 63.48C87.3862 63.5973 87.3648 63.6667 87.3008 63.688C87.2368 63.7093 87.0555 63.72 86.7568 63.72C85.5195 63.7733 84.8955 63.8213 84.8848 63.864C84.8422 63.896 84.7622 64.0827 84.6448 64.424C84.5275 64.7653 84.4262 65.0907 84.3408 65.4C84.2022 66.04 84.1328 66.6053 84.1328 67.096C84.1328 67.544 84.1968 67.8427 84.3248 67.992C84.3782 68.0453 84.4795 68.072 84.6288 68.072C84.7782 68.072 84.9382 68.0453 85.1088 67.992C85.2902 67.928 85.4395 67.848 85.5568 67.752C85.7488 67.592 85.9088 67.512 86.0368 67.512C86.1008 67.512 86.1488 67.5333 86.1808 67.576C86.2235 67.608 86.2448 67.6507 86.2448 67.704C86.2448 67.8213 86.1808 67.9707 86.0528 68.152C85.8928 68.3973 85.6795 68.6 85.4128 68.76C85.1462 68.92 84.8902 69 84.6448 69C84.5275 69 84.4422 68.9893 84.3888 68.968ZM93.2537 68.648C93.115 68.6907 92.9977 68.712 92.9017 68.712C92.827 68.712 92.7524 68.696 92.6777 68.664C92.6137 68.6213 92.5284 68.5467 92.4217 68.44C92.3897 68.3973 92.331 68.3227 92.2457 68.216C92.171 68.0987 92.1124 67.976 92.0697 67.848C92.0377 67.7093 92.0217 67.5387 92.0217 67.336C92.0217 67.1867 92.027 67.0587 92.0377 66.952C92.0484 66.8453 92.059 66.76 92.0697 66.696L92.1017 66.232C92.1764 65.9013 92.2137 65.608 92.2137 65.352C92.2137 65.064 92.1764 64.92 92.1017 64.92C91.9417 64.888 91.5897 65.128 91.0457 65.64C90.5017 66.1413 89.9097 66.76 89.2697 67.496L88.9817 67.912C88.9604 67.944 88.907 68.0187 88.8217 68.136C88.7364 68.2533 88.6777 68.312 88.6457 68.312C88.5284 68.3227 88.3684 68.2693 88.1657 68.152C87.963 68.024 87.8564 67.912 87.8457 67.816C87.8457 67.752 87.9257 67.4587 88.0857 66.936C88.2564 66.4027 88.3897 65.9867 88.4857 65.688L89.1897 63.608C89.275 63.3413 89.4297 62.9413 89.6537 62.408L89.9577 61.624L90.1497 61.144L90.8857 59.192V59.128C90.8857 58.9467 90.923 58.8187 90.9977 58.744L91.2217 58.728C91.2217 58.7067 91.2644 58.7333 91.3497 58.808C91.435 58.872 91.515 58.952 91.5897 59.048C91.675 59.1333 91.7177 59.2027 91.7177 59.256C91.7497 59.3307 91.7657 59.416 91.7657 59.512C91.7657 59.7573 91.643 60.1787 91.3977 60.776C91.3017 60.9147 91.1577 61.2507 90.9657 61.784C90.859 62.0827 90.779 62.2907 90.7257 62.408C90.5977 62.6427 90.3737 63.128 90.0537 63.864C89.7444 64.5893 89.5257 65.1867 89.3977 65.656C89.3124 65.8587 89.2697 66.008 89.2697 66.104C89.2697 66.1573 89.2857 66.184 89.3177 66.184C89.3924 66.184 89.5097 66.0827 89.6697 65.88C90.3417 65.1653 90.8804 64.6267 91.2857 64.264C91.691 63.9013 92.0164 63.7307 92.2617 63.752C92.3897 63.784 92.5444 63.9067 92.7257 64.12C92.9177 64.3227 93.051 64.52 93.1257 64.712C93.1897 64.9467 93.2217 65.1653 93.2217 65.368C93.2217 65.5493 93.2057 65.88 93.1737 66.36L93.1417 66.728C93.0564 67.2613 93.0137 67.5707 93.0137 67.656C93.0137 67.752 93.0244 67.8213 93.0457 67.864C93.0777 67.9067 93.1364 67.9653 93.2217 68.04C93.3924 68.1787 93.4777 68.296 93.4777 68.392C93.4777 68.4773 93.403 68.5627 93.2537 68.648ZM97.6073 62.152C97.4047 62.152 97.1967 62.0453 96.9833 61.832C96.7807 61.608 96.6793 61.3787 96.6793 61.144C96.6793 61.0907 96.7433 60.968 96.8713 60.776C96.9993 60.584 97.0633 60.4773 97.0633 60.456C97.138 60.456 97.202 60.4613 97.2553 60.472C97.3087 60.4827 97.3727 60.504 97.4473 60.536C97.5433 60.7493 97.6927 60.968 97.8953 61.192C97.9593 61.2773 98.018 61.3573 98.0713 61.432C98.1247 61.5067 98.1513 61.5707 98.1513 61.624C98.1513 61.8053 98.1407 61.928 98.1193 61.992C98.1087 62.056 98.066 62.0987 97.9913 62.12C97.9273 62.1413 97.7993 62.152 97.6073 62.152ZM95.2553 68.216C95.2233 68.216 95.1807 68.2053 95.1273 68.184C95.074 68.1627 95.0367 68.1467 95.0153 68.136C95.0153 68.104 94.9993 68.0507 94.9673 67.976C94.946 67.8907 94.9353 67.8373 94.9353 67.816C94.85 67.7733 94.8073 67.72 94.8073 67.656C94.8073 67.6027 94.8233 67.528 94.8553 67.432C94.994 67.1867 95.2393 66.632 95.5913 65.768C95.9433 64.8933 96.1407 64.376 96.1833 64.216C96.1833 64.1733 96.1993 64.12 96.2313 64.056C96.2633 63.992 96.3007 63.9387 96.3433 63.896C96.386 63.8533 96.434 63.832 96.4873 63.832C96.6047 63.832 96.7113 63.912 96.8073 64.072C96.914 64.232 96.9673 64.408 96.9673 64.6C96.9673 64.728 96.8447 65.096 96.5993 65.704C96.3647 66.3013 96.098 66.904 95.7993 67.512C95.7567 67.5973 95.6927 67.72 95.6073 67.88C95.5327 68.04 95.474 68.136 95.4313 68.168C95.3887 68.2 95.33 68.216 95.2553 68.216ZM98.9117 69.064C98.7197 68.9893 98.533 68.8827 98.3517 68.744C98.1704 68.5947 98.0477 68.4667 97.9837 68.36C97.9837 68.3387 97.9837 68.3013 97.9837 68.248C97.9837 68.1947 97.9997 68.1627 98.0317 68.152C98.0637 68.1307 98.1224 68.12 98.2077 68.12C98.389 68.12 98.677 68.1413 99.0717 68.184C99.3064 68.184 99.573 68.1573 99.8717 68.104C100.17 68.04 100.336 67.9707 100.368 67.896C100.4 67.896 100.416 67.8907 100.416 67.88C100.416 67.8587 100.373 67.8053 100.288 67.72C100.266 67.72 100.218 67.704 100.144 67.672C100.069 67.6293 100.021 67.608 99.9997 67.608C99.9997 67.5653 99.9517 67.512 99.8557 67.448C99.7597 67.3733 99.653 67.3093 99.5357 67.256C99.2264 67 99.0077 66.8133 98.8797 66.696C98.7517 66.568 98.7037 66.4773 98.7357 66.424V66.344C98.661 66.344 98.5757 66.2427 98.4797 66.04C98.3944 65.8267 98.3517 65.6293 98.3517 65.448C98.3517 65.256 98.4317 64.9893 98.5917 64.648C98.7624 64.3067 98.9544 64.0293 99.1677 63.816C99.4664 63.5387 99.8504 63.2453 100.32 62.936C100.8 62.6267 101.178 62.4293 101.456 62.344C101.637 62.2693 101.818 62.232 102 62.232C102.17 62.232 102.314 62.2693 102.432 62.344C102.57 62.4293 102.704 62.552 102.832 62.712C102.97 62.872 103.061 63.016 103.104 63.144C103.104 63.3787 103.077 63.608 103.024 63.832C102.981 64.0453 102.912 64.152 102.816 64.152C102.805 64.152 102.789 64.1573 102.768 64.168C102.746 64.1787 102.736 64.2053 102.736 64.248C102.736 64.2907 102.714 64.3493 102.672 64.424C102.629 64.488 102.57 64.552 102.496 64.616C102.261 64.7867 102.069 64.872 101.92 64.872C101.802 64.872 101.728 64.8133 101.696 64.696C101.674 64.6747 101.653 64.6427 101.632 64.6C101.61 64.5573 101.584 64.536 101.552 64.536C101.541 64.536 101.52 64.52 101.488 64.488C101.466 64.4453 101.456 64.392 101.456 64.328C101.456 64.296 101.466 64.264 101.488 64.232C101.52 64.1893 101.541 64.1627 101.552 64.152C101.616 64.152 101.722 64.0293 101.872 63.784C102.021 63.528 102.096 63.3573 102.096 63.272C102.096 63.208 102.085 63.1707 102.064 63.16C102.053 63.1493 102.005 63.144 101.92 63.144C101.088 63.5173 100.57 63.8 100.368 63.992C100.336 64.056 100.309 64.0987 100.288 64.12C100.277 64.1413 100.25 64.152 100.208 64.152C100.208 64.056 99.925 64.4187 99.3597 65.24C99.3384 65.2613 99.3117 65.3253 99.2797 65.432C99.2584 65.5387 99.2477 65.6293 99.2477 65.704C99.2264 65.7893 99.2157 65.8373 99.2157 65.848C99.2157 65.8907 99.2317 65.9333 99.2637 65.976C99.3064 66.0187 99.3597 66.0667 99.4237 66.12C99.4877 66.1627 99.5517 66.2107 99.6157 66.264C100.17 66.68 100.554 66.9947 100.768 67.208C100.992 67.4107 101.125 67.5813 101.168 67.72C101.306 67.9333 101.376 68.1253 101.376 68.296C101.376 68.424 101.328 68.536 101.232 68.632C101.136 68.728 100.992 68.8187 100.8 68.904C100.682 68.9573 100.485 69 100.208 69.032C99.9304 69.0747 99.6584 69.096 99.3917 69.096C99.2424 69.096 99.0824 69.0853 98.9117 69.064ZM51.379 90.6C51.2937 90.6 51.2243 90.552 51.171 90.456C51.1177 90.3813 51.091 90.2907 51.091 90.184C51.091 90.1093 51.1177 89.928 51.171 89.64C51.2883 89.192 51.347 88.8827 51.347 88.712C51.347 88.6587 51.3577 88.5787 51.379 88.472C51.4003 88.376 51.4163 88.2853 51.427 88.2C51.4697 88.1253 51.507 88.008 51.539 87.848C51.5817 87.6987 51.603 87.5653 51.603 87.448C51.603 87.3947 51.619 87.3307 51.651 87.256C51.6937 87.192 51.7417 87.1387 51.795 87.096C51.795 87.032 51.811 86.936 51.843 86.808C51.875 86.6693 51.8963 86.5733 51.907 86.52C51.9603 86.232 52.1683 85.5493 52.531 84.472C52.8937 83.3947 53.203 82.5253 53.459 81.864C53.5763 81.5973 53.6617 81.352 53.715 81.128C53.7683 80.904 53.795 80.728 53.795 80.6C53.795 80.5573 53.8057 80.52 53.827 80.488C53.859 80.4453 53.907 80.392 53.971 80.328C54.0457 80.2533 54.115 80.216 54.179 80.216C54.2323 80.216 54.291 80.2373 54.355 80.28C54.419 80.3227 54.483 80.3707 54.547 80.424C54.611 80.52 54.659 80.6107 54.691 80.696C54.7337 80.7813 54.755 80.872 54.755 80.968C54.755 81 54.7443 81.1013 54.723 81.272C54.723 81.496 54.675 81.6827 54.579 81.832C54.483 81.9707 54.4457 82.0347 54.467 82.024C54.947 81.8 55.3737 81.688 55.747 81.688C56.195 81.688 56.5417 81.832 56.787 82.12C57.043 82.408 57.171 82.7813 57.171 83.24C57.171 83.432 57.1123 83.6667 56.995 83.944C56.8883 84.2107 56.7817 84.392 56.675 84.488C56.611 84.488 56.5257 84.6 56.419 84.824C56.2803 84.9947 56.051 85.176 55.731 85.368C55.411 85.5493 55.187 85.6187 55.059 85.576C55.0483 85.576 55.0323 85.5813 55.011 85.592C54.9897 85.6027 54.979 85.6293 54.979 85.672C54.979 85.7147 54.7977 85.7947 54.435 85.912C54.0723 86.0293 53.7737 86.088 53.539 86.088C53.411 86.088 53.315 86.0827 53.251 86.072C53.187 86.0507 53.123 86.0133 53.059 85.96C52.9843 86.0347 52.947 86.104 52.947 86.168C52.947 86.2853 52.8937 86.4987 52.787 86.808C52.6803 87.1173 52.595 87.272 52.531 87.272C52.5203 87.2827 52.5043 87.304 52.483 87.336C52.4723 87.368 52.4883 87.4053 52.531 87.448C52.531 87.48 52.5257 87.5547 52.515 87.672C52.5043 87.7893 52.4777 87.88 52.435 87.944C52.435 88.04 52.419 88.168 52.387 88.328C52.355 88.4987 52.3177 88.6267 52.275 88.712C52.275 88.84 52.2537 88.9627 52.211 89.08C52.179 89.208 52.1417 89.272 52.099 89.272C52.035 89.2933 52.003 89.448 52.003 89.736C51.9923 90.0027 51.939 90.2107 51.843 90.36C51.747 90.5093 51.635 90.584 51.507 90.584L51.379 90.6ZM53.443 85.24C53.603 85.24 53.923 85.16 54.403 85C54.8937 84.8293 55.235 84.664 55.427 84.504C55.651 84.312 55.8323 84.1093 55.971 83.896C56.1097 83.672 56.179 83.448 56.179 83.224C56.179 83.0533 56.131 82.8987 56.035 82.76C55.9603 82.6427 55.8323 82.584 55.651 82.584C55.4377 82.584 55.1817 82.6587 54.883 82.808C54.595 82.9573 54.3283 83.1547 54.083 83.4C53.891 83.592 53.7203 83.8693 53.571 84.232C53.4217 84.584 53.347 84.8613 53.347 85.064C53.347 85.1813 53.379 85.24 53.443 85.24ZM58.4339 86.248C58.3165 86.184 58.2312 86.12 58.1779 86.056C58.1352 85.992 58.1139 85.9013 58.1139 85.784C58.1139 85.5707 58.1779 85.2293 58.3059 84.76C58.3379 84.4933 58.3699 84.28 58.4019 84.12C58.4445 83.9493 58.5139 83.784 58.6099 83.624C58.6525 83.464 58.7272 83.224 58.8339 82.904C59.0685 82.1573 59.2285 81.5813 59.3139 81.176C59.3992 80.9413 59.4739 80.7333 59.5379 80.552C59.6019 80.3707 59.6605 80.2053 59.7139 80.056C59.6925 80.12 59.8259 79.7573 60.1139 78.968C60.1992 78.712 60.2579 78.5147 60.2899 78.376C60.4072 77.896 60.5405 77.5333 60.6899 77.288C60.7645 77.1813 60.8179 77.0907 60.8499 77.016C60.8925 76.9413 60.9299 76.8827 60.9619 76.84C60.9619 76.8187 60.9779 76.8027 61.0099 76.792C61.0419 76.7707 61.0792 76.76 61.1219 76.76C61.2499 76.76 61.3565 76.8027 61.4419 76.888C61.4952 76.8667 61.5592 76.9307 61.6339 77.08C61.7192 77.2293 61.7565 77.3467 61.7459 77.432C61.7459 77.5707 61.7085 77.6987 61.6339 77.816C61.5912 77.8587 61.5432 77.9387 61.4899 78.056C61.4365 78.1627 61.3885 78.2533 61.3459 78.328C61.3245 78.4027 61.2872 78.5307 61.2339 78.712C61.1912 78.8827 61.1485 79.0267 61.1059 79.144C61.0525 79.272 60.9992 79.3947 60.9459 79.512C60.9032 79.6187 60.8659 79.7147 60.8339 79.8C60.7912 79.9387 60.7165 80.1467 60.6099 80.424C60.4605 80.7867 60.3592 81.0693 60.3059 81.272C60.2845 81.336 60.2472 81.4693 60.1939 81.672C60.0445 82.2053 59.9005 82.5947 59.7619 82.84C59.6765 82.9787 59.6125 83.1653 59.5699 83.4C59.5379 83.6347 59.5165 83.7787 59.5059 83.832C59.3459 84.312 59.2659 84.5947 59.2659 84.68C59.2445 84.776 59.2072 84.9627 59.1539 85.24C59.0899 85.5813 59.0259 85.8267 58.9619 85.976C58.9405 86.2213 58.8605 86.344 58.7219 86.344C58.6365 86.344 58.5405 86.312 58.4339 86.248ZM60.993 86.424C60.961 86.36 60.9077 86.296 60.833 86.232C60.769 86.1573 60.737 86.1093 60.737 86.088C60.737 85.9707 60.7103 85.88 60.657 85.816C60.6357 85.7947 60.625 85.7467 60.625 85.672C60.625 85.5013 60.705 85.2133 60.865 84.808C61.0357 84.392 61.2543 83.944 61.521 83.464C61.585 83.4 61.665 83.288 61.761 83.128C61.8677 82.968 61.937 82.8773 61.969 82.856C61.969 82.8133 61.985 82.776 62.017 82.744C62.049 82.7013 62.0863 82.68 62.129 82.68V82.584C62.129 82.488 62.305 82.2587 62.657 81.896C63.009 81.5227 63.297 81.2667 63.521 81.128C63.7877 80.9467 64.0597 80.856 64.337 80.856C64.529 80.856 64.6943 80.9093 64.833 81.016C64.8863 81.08 65.1317 81.3093 65.569 81.704L66.161 82.232L65.873 83.032C65.777 83.32 65.729 83.5813 65.729 83.816C65.729 84.2213 65.8463 84.6107 66.081 84.984C66.1343 85.1013 66.241 85.2133 66.401 85.32C66.561 85.4267 66.721 85.4907 66.881 85.512C67.1157 85.5547 67.233 85.672 67.233 85.864C67.233 86.0773 67.137 86.2053 66.945 86.248C66.9023 86.2587 66.8383 86.264 66.753 86.264C66.1237 86.264 65.5797 85.8213 65.121 84.936C65.0783 84.872 65.0197 84.7547 64.945 84.584C64.881 84.4133 64.8437 84.296 64.833 84.232C64.769 84.3173 64.689 84.4187 64.593 84.536C64.497 84.6533 64.4063 84.7547 64.321 84.84C63.1583 86.0027 62.241 86.584 61.569 86.584C61.3557 86.584 61.1637 86.5307 60.993 86.424ZM61.569 85.528C61.569 85.5813 61.6223 85.5973 61.729 85.576C61.8463 85.5547 61.985 85.5013 62.145 85.416C62.3157 85.3307 62.4863 85.2187 62.657 85.08C63.5743 84.2907 64.2357 83.6027 64.641 83.016L64.993 82.44C64.8863 82.216 64.7743 82.056 64.657 81.96C64.5397 81.8533 64.433 81.8 64.337 81.8C64.113 81.8 63.761 82.0827 63.281 82.648C62.801 83.2027 62.3637 83.8587 61.969 84.616C61.873 84.7973 61.7877 84.984 61.713 85.176C61.6383 85.3573 61.5903 85.4747 61.569 85.528ZM68.6334 86.296C68.6014 86.296 68.5427 86.2693 68.4574 86.216C68.3827 86.1627 68.3187 86.1093 68.2654 86.056C68.1907 85.9813 68.1427 85.9013 68.1214 85.816C68.1107 85.7307 68.1054 85.5333 68.1054 85.224C68.1054 84.8933 68.1694 84.5307 68.2974 84.136C68.436 83.7413 68.676 83.1707 69.0174 82.424L69.5454 81.304C69.5774 81.2293 69.652 81.1227 69.7694 80.984H69.9294C70.004 80.984 70.084 81.032 70.1694 81.128C70.2654 81.224 70.3347 81.336 70.3774 81.464C70.3774 81.6347 70.3507 81.7947 70.2974 81.944C70.2547 82.0933 70.132 82.3013 69.9294 82.568C69.844 82.696 69.7427 82.8987 69.6254 83.176C69.508 83.4533 69.428 83.688 69.3854 83.88C69.3534 83.9333 69.3107 84.024 69.2574 84.152C69.2147 84.28 69.1614 84.4133 69.0974 84.552L69.0174 84.904L70.0894 83.8C70.5587 83.3307 70.9374 82.9893 71.2254 82.776C71.524 82.5627 71.7694 82.456 71.9614 82.456C72.1854 82.456 72.3667 82.6 72.5054 82.888C72.6014 83.048 72.6654 83.176 72.6974 83.272C72.7294 83.3573 72.7454 83.496 72.7454 83.688C72.7454 83.752 72.7347 83.9333 72.7134 84.232V85.224C72.8627 85.192 72.996 85.1493 73.1134 85.096C73.2414 85.0427 73.3374 85.0053 73.4014 84.984C73.6467 84.8773 73.9187 84.8133 74.2174 84.792C74.196 84.9733 74.116 85.1707 73.9774 85.384C73.8387 85.5973 73.668 85.7787 73.4654 85.928C73.2627 86.0667 73.0654 86.136 72.8734 86.136C72.724 86.136 72.564 86.0667 72.3934 85.928C72.2334 85.7893 72.116 85.6347 72.0414 85.464C71.9987 85.3467 71.972 85.2027 71.9614 85.032C71.9614 84.8613 71.9614 84.6213 71.9614 84.312V83.72C71.9614 83.6133 71.9294 83.56 71.8654 83.56C71.8227 83.56 71.7214 83.624 71.5614 83.752C71.348 83.944 71.0014 84.2907 70.5214 84.792C70.0627 85.272 69.6627 85.6453 69.3214 85.912C68.9907 86.168 68.7614 86.296 68.6334 86.296Z" fill="black" fill-opacity="0.6"/>
<path d="M9.11108 12.1274C27.1167 11.7457 56.159 19.2049 56.6988 44.6611" stroke="black" stroke-opacity="0.6"/>
<path d="M14.5092 6.82807L8.89556 12.338L14.4053 17.9516" stroke="black" stroke-opacity="0.6"/>
</svg>
