<svg width="54" height="54" viewBox="0 0 54 54" fill="none" xmlns="http://www.w3.org/2000/svg">
<g clip-path="url(#clip0)">
<path d="M32.0121 16.6494H21.9879C21.9879 18.4185 20.5328 19.8578 18.7442 19.8578V29.5734C18.7442 32.1262 20.2556 34.4424 22.6073 35.4936L27 37.4572L31.3925 35.4937C33.7443 34.4424 35.2557 32.1263 35.2557 29.5736V19.8579C33.4671 19.8579 32.0121 18.4185 32.0121 16.6494Z" fill="#FFCA45"/>
<path d="M36.8946 0H17.1053C14.2837 0 11.9882 2.29553 11.9882 5.11713V45.3174V45.3199V45.3225V48.883C11.9882 51.7046 14.2837 54.0001 17.1053 54.0001H36.8946C39.7162 54.0001 42.0118 51.7046 42.0118 48.883V5.11713C42.0118 2.29553 39.7162 0 36.8946 0V0ZM39.9024 6.99005V44.2674L14.0976 44.2628V6.99005H39.9024ZM17.1053 2.10938H36.8946C38.4735 2.10938 39.7721 3.33229 39.8932 4.88057L14.1072 4.87582C14.2305 3.32986 15.528 2.10938 17.1053 2.10938ZM39.9024 48.8829C39.9024 50.5414 38.5531 51.8906 36.8946 51.8906H17.1053C15.4468 51.8906 14.0976 50.5414 14.0976 48.8829V46.377H39.9024V48.8829Z" fill="#7B56EE"/>
<path d="M25.9094 50.1885H28.0906C28.6731 50.1885 29.1453 49.7162 29.1453 49.1338C29.1453 48.5514 28.6731 48.0791 28.0906 48.0791H25.9094C25.3269 48.0791 24.8547 48.5514 24.8547 49.1338C24.8547 49.7163 25.3269 50.1885 25.9094 50.1885Z" fill="#7B56EE"/>
<path d="M24.2685 28.0845L25.9521 29.652C26.1483 29.8346 26.4054 29.9348 26.6708 29.9348C26.7081 29.9348 26.7455 29.9329 26.7829 29.9288C27.0869 29.8962 27.3618 29.7334 27.5365 29.4826L29.8784 26.1183C30.2112 25.6403 30.0934 24.9829 29.6153 24.6501C29.1372 24.3173 28.4798 24.4351 28.1471 24.9132L26.4998 27.2797L25.706 26.5406C25.2797 26.1437 24.6122 26.1676 24.2154 26.5938C23.8183 27.0201 23.8422 27.6877 24.2685 28.0845Z" fill="#7B56EE"/>
</g>
<defs>
<clipPath id="clip0">
<rect width="54" height="54" fill="white"/>
</clipPath>
</defs>
</svg>
