<svg width="28" height="24" viewBox="0 0 28 24" fill="none" xmlns="http://www.w3.org/2000/svg">
<g clip-path="url(#clip0)">
<path d="M10.4138 23.375L0.403964 11.4007C0.25691 11.2251 0.145887 11.0222 0.0772385 10.8037C0.00858954 10.5851 -0.016335 10.3552 0.00387142 10.1271C0.0240778 9.8989 0.0890333 9.6769 0.195019 9.47383C0.301004 9.27076 0.445938 9.09058 0.621568 8.94353C0.797197 8.79648 1.00012 8.68545 1.21865 8.6168C1.43719 8.54816 1.66709 8.52328 1.89526 8.54349C2.12344 8.5637 2.34538 8.62865 2.54845 8.73464C2.75152 8.84062 2.9317 8.9855 3.07875 9.16113L13.0885 21.1354C13.3855 21.4901 13.5295 21.9484 13.4887 22.4092C13.4479 22.87 13.2256 23.2956 12.8709 23.5926C12.5162 23.8896 12.0581 24.0336 11.5973 23.9928C11.1365 23.9519 10.7107 23.7297 10.4138 23.375Z" fill="#7B56EE"/>
<path d="M13.3445 23.1835L27.1485 2.72875C27.2773 2.53929 27.3676 2.32631 27.4141 2.10197C27.4606 1.87764 27.4625 1.64638 27.4196 1.42132C27.3767 1.19626 27.2899 0.981811 27.1642 0.790292C27.0384 0.598774 26.8762 0.433967 26.6867 0.305146C26.4973 0.176324 26.2843 0.0860277 26.06 0.0395154C25.8357 -0.00699684 25.6043 -0.00888773 25.3793 0.0339903C25.1542 0.0768683 24.9398 0.16368 24.7483 0.28942C24.5568 0.415161 24.3919 0.577351 24.2631 0.766811L10.4591 21.2216C10.1989 21.6042 10.1015 22.0746 10.1881 22.5291C10.2747 22.9837 10.5383 23.3852 10.9209 23.6453C11.3035 23.9055 11.7738 24.003 12.2284 23.9164C12.6829 23.8298 13.0844 23.5662 13.3445 23.1835Z" fill="#7B56EE"/>
</g>
<defs>
<clipPath id="clip0">
<rect width="27.4503" height="24" fill="white"/>
</clipPath>
</defs>
</svg>
