<svg width="24" height="24" viewBox="0 0 24 24" fill="none" xmlns="http://www.w3.org/2000/svg">
<path d="M3.73438 17L19.7344 17C21.0677 17 21.0677 19 19.7344 19H3.73438C2.40104 19 2.40104 17 3.73438 17Z" fill="#9B89EA"/>
<path d="M5.61722 7L4.00772 19.876C4.00258 19.9171 4 19.9585 4 20C4 20.5523 4.44772 21 5 21H18.4689C18.5103 21 18.5518 20.9974 18.5929 20.9923C19.1409 20.9238 19.5297 20.424 19.4611 19.876L18.2585 10.2545C18.19 9.70651 18.5787 9.20672 19.1267 9.13822C19.6747 9.06972 20.1745 9.45844 20.243 10.0065L21.4457 19.6279C21.6512 21.272 20.485 22.7713 18.841 22.9768C18.7175 22.9923 18.5933 23 18.4689 23H5C3.34315 23 2 21.6569 2 20C2 19.8756 2.00774 19.7513 2.02317 19.6279L3.74216 5.87597C3.80471 5.37554 4.23011 5 4.73444 5H18.7344C19.2867 5 19.7344 5.44772 19.7344 6C19.7344 6.55228 19.2867 7 18.7344 7H5.61722Z" fill="#313645"/>
<path d="M8.73438 9C8.73438 9.55229 8.28666 10 7.73438 10C7.18209 10 6.73438 9.55229 6.73438 9V4C6.73438 2.34315 8.07752 1 9.73438 1H13.7344C15.3912 1 16.7344 2.34315 16.7344 4V9C16.7344 9.55229 16.2867 10 15.7344 10C15.1821 10 14.7344 9.55229 14.7344 9V4C14.7344 3.44772 14.2867 3 13.7344 3H9.73438C9.18209 3 8.73438 3.44772 8.73438 4V9Z" fill="#313645"/>
</svg>
