<svg width="24" height="24" viewBox="0 0 24 24" fill="none" xmlns="http://www.w3.org/2000/svg">
<path d="M6.5 21H4.5V7H6.5V21Z" fill="#9B89EA"/>
<path d="M17.5 7H19.5V21H17.5V7Z" fill="#9B89EA"/>
<path d="M3 15C3 15.5523 2.55228 16 2 16C1.44772 16 1 15.5523 1 15V8C1 6.89543 1.89543 6 3 6H21C22.1046 6 23 6.89543 23 8V19C23 20.6569 21.6569 22 20 22H4C2.34315 22 1 20.6569 1 19C1 18.4477 1.44772 18 2 18C2.55228 18 3 18.4477 3 19C3 19.5523 3.44772 20 4 20H20C20.5523 20 21 19.5523 21 19V8H3V15Z" fill="#313645"/>
<path fill-rule="evenodd" clip-rule="evenodd" d="M17 6V8H7V6C7 4.34315 8.34315 3 10 3H14C15.6569 3 17 4.34315 17 6ZM10 5C9.44772 5 9 5.44772 9 6H15C15 5.44772 14.5523 5 14 5H10Z" fill="#313645"/>
</svg>
