<svg width="21" height="18" viewBox="0 0 21 18" fill="none" xmlns="http://www.w3.org/2000/svg">
<path d="M18.8431 5.17114C18.8561 5.35614 18.8561 5.54114 18.8561 5.72614C18.8668 7.32414 18.56 8.90835 17.9534 10.3868C17.3468 11.8652 16.4525 13.2084 15.3225 14.3383C14.1925 15.4682 12.8492 16.3624 11.3708 16.9689C9.89228 17.5753 8.30805 17.882 6.71005 17.8711C4.38578 17.8774 2.10919 17.212 0.154053 15.9551C0.496392 15.9929 0.840647 16.0106 1.18505 16.0081C3.10649 16.0129 4.97353 15.3704 6.48505 14.1841C5.59412 14.1679 4.73049 13.8739 4.0148 13.343C3.2991 12.8122 2.76708 12.071 2.49305 11.2231C2.75968 11.2653 3.02911 11.2874 3.29905 11.2891C3.67799 11.2881 4.05529 11.2394 4.42205 11.1441C3.45538 10.9485 2.58623 10.4243 1.96225 9.66047C1.33827 8.89667 0.997933 7.94042 0.999053 6.95414V6.90114C1.5907 7.23134 2.252 7.41705 2.92905 7.44314C2.02291 6.83878 1.38155 5.9114 1.13588 4.85027C0.890201 3.78914 1.05872 2.67425 1.60705 1.73314C2.67912 3.05261 4.01648 4.13209 5.53245 4.90161C7.04842 5.67114 8.70916 6.11354 10.4071 6.20014C10.3385 5.87861 10.3029 5.55091 10.3011 5.22214C10.3008 4.36483 10.5584 3.52726 11.0404 2.81829C11.5224 2.10931 12.2066 1.56173 13.0039 1.2467C13.8012 0.931671 14.6749 0.863767 15.5113 1.05181C16.3477 1.23986 17.1083 1.67516 17.6941 2.30114C18.6503 2.11716 19.5673 1.76829 20.4041 1.27014C20.0857 2.25683 19.4183 3.09348 18.5271 3.62314C19.3748 3.52656 20.2032 3.30377 20.9851 2.96214C20.4005 3.81378 19.6763 4.56061 18.8431 5.17114Z" fill="white"/>
</svg>
