<svg width="54" height="54" viewBox="0 0 54 54" fill="none" xmlns="http://www.w3.org/2000/svg">
<g clip-path="url(#clip0)">
<path d="M26.8405 38.8469V40.4806C24.6968 42.2684 21.9385 43.3433 18.9287 43.3433C15.9189 43.3433 13.1606 42.2683 11.0168 40.4806V38.8469C11.0168 35.5307 13.0526 32.6892 15.9401 31.5079C16.3333 31.8701 16.792 32.1622 17.2967 32.3633C17.8014 32.5643 18.3522 32.6749 18.9286 32.6749C20.0815 32.6749 21.1308 32.2322 21.9171 31.5078C22.9 31.9099 23.7847 32.504 24.5232 33.2442C25.955 34.6789 26.8405 36.6597 26.8405 38.8469Z" fill="#FFCA45"/>
<path d="M50.2628 4.73633H3.73718C1.67643 4.73633 0 6.42478 0 8.5003V45.4991C0 47.5747 1.67643 49.2631 3.73718 49.2631H50.2628C52.3236 49.2631 54 47.5746 54 45.4991V8.5003C54 6.42478 52.3235 4.73633 50.2628 4.73633ZM2.10938 8.5003C2.10938 7.58789 2.83964 6.8457 3.73718 6.8457H50.2628C51.1604 6.8457 51.8906 7.58799 51.8906 8.5003V12.6943H2.10938V8.5003ZM51.8906 45.4991C51.8906 46.4115 51.1604 47.1537 50.2628 47.1537H3.73718C2.83964 47.1537 2.10938 46.4115 2.10938 45.4991V14.8036H51.8906V45.4991Z" fill="#7B56EE"/>
<path d="M8.74272 8.71484H7.28851C6.70601 8.71484 6.23383 9.18703 6.23383 9.76953C6.23383 10.352 6.70601 10.8242 7.28851 10.8242H8.74261C9.32511 10.8242 9.7973 10.352 9.7973 9.76953C9.7974 9.18703 9.32511 8.71484 8.74272 8.71484Z" fill="#7B56EE"/>
<path d="M14.7611 8.71484H13.307C12.7245 8.71484 12.2523 9.18703 12.2523 9.76953C12.2523 10.352 12.7245 10.8242 13.307 10.8242H14.7611C15.3436 10.8242 15.8158 10.352 15.8158 9.76953C15.8158 9.18703 15.3436 8.71484 14.7611 8.71484Z" fill="#7B56EE"/>
<path d="M20.7795 8.71484H19.3253C18.7428 8.71484 18.2707 9.18703 18.2707 9.76953C18.2707 10.352 18.7428 10.8242 19.3253 10.8242H20.7795C21.3621 10.8242 21.8342 10.352 21.8342 9.76953C21.8342 9.18703 21.3621 8.71484 20.7795 8.71484Z" fill="#7B56EE"/>
<path d="M46.7115 8.71484H41.5503C40.9678 8.71484 40.4956 9.18703 40.4956 9.76953C40.4956 10.352 40.9678 10.8242 41.5503 10.8242H46.7115C47.294 10.8242 47.7662 10.352 47.7662 9.76953C47.7662 9.18703 47.2939 8.71484 46.7115 8.71484Z" fill="#7B56EE"/>
<path d="M36.0457 27.3174H47.4364C48.0189 27.3174 48.4911 26.8452 48.4911 26.2627C48.4911 25.6802 48.0189 25.208 47.4364 25.208H36.0457C35.4632 25.208 34.9911 25.6802 34.9911 26.2627C34.9911 26.8452 35.4632 27.3174 36.0457 27.3174Z" fill="#7B56EE"/>
<path d="M36.0457 32.0332H47.4364C48.0189 32.0332 48.4911 31.561 48.4911 30.9785C48.4911 30.396 48.0189 29.9238 47.4364 29.9238H36.0457C35.4632 29.9238 34.9911 30.396 34.9911 30.9785C34.9911 31.561 35.4632 32.0332 36.0457 32.0332Z" fill="#7B56EE"/>
<path d="M36.0457 36.749H47.4364C48.0189 36.749 48.4911 36.2768 48.4911 35.6943C48.4911 35.1118 48.0189 34.6396 47.4364 34.6396H36.0457C35.4632 34.6396 34.9911 35.1118 34.9911 35.6943C34.9911 36.2768 35.4632 36.749 36.0457 36.749Z" fill="#7B56EE"/>
<path d="M18.9287 33.7295C21.9456 33.7295 24.4 31.2751 24.4 28.2581V27.0768C24.4 24.0598 21.9456 21.6055 18.9287 21.6055C15.9118 21.6055 13.4574 24.0598 13.4574 27.0768V28.2581C13.4574 31.2752 15.9118 33.7295 18.9287 33.7295ZM15.5668 27.0769C15.5668 25.223 17.0749 23.715 18.9287 23.715C20.7825 23.715 22.2906 25.2232 22.2906 27.0769V28.2582C22.2906 30.1121 20.7824 31.6203 18.9287 31.6203C17.0749 31.6203 15.5668 30.1121 15.5668 28.2582V27.0769Z" fill="#FFCA45"/>
<path d="M10.3413 41.2913C12.7442 43.2952 15.7939 44.3988 18.9287 44.3988C22.0634 44.3988 25.1132 43.2952 27.5157 41.2916C30.587 38.7321 32.3483 34.9734 32.3483 30.9792C32.3483 23.5796 26.3283 17.5596 18.9287 17.5596C11.5291 17.5596 5.50894 23.5795 5.50894 30.9792C5.50894 34.9733 7.27038 38.732 10.3413 41.2913ZM18.9287 19.6688C25.1652 19.6688 30.2389 24.7426 30.2389 30.9791C30.2389 34.3454 28.7541 37.5136 26.165 39.6713C24.1405 41.3595 21.5706 42.2893 18.9287 42.2893C16.2868 42.2893 13.7167 41.3595 11.692 39.671C9.10321 37.5134 7.61832 34.3453 7.61832 30.979C7.61832 24.7426 12.6921 19.6688 18.9287 19.6688Z" fill="#FFCA45"/>
</g>
<defs>
<clipPath id="clip0">
<rect width="54" height="54" fill="white"/>
</clipPath>
</defs>
</svg>
