<svg width="55" height="55" viewBox="0 0 55 55" fill="none" xmlns="http://www.w3.org/2000/svg">
<g clip-path="url(#clip0)">
<path d="M44.773 31.9996C44.773 31.9996 37.6329 44.2238 27.5 44.2238C17.3671 44.2238 10.227 31.9996 10.227 31.9996C10.227 31.9996 17.3671 19.7754 27.5 19.7754C37.6329 19.7754 44.773 31.9996 44.773 31.9996Z" fill="#FFCA45"/>
<path d="M51.1936 4.82422H3.80639C1.70758 4.82422 0 6.54404 0 8.65789V46.342C0 48.4559 1.70758 50.1757 3.80639 50.1757H51.1936C53.2925 50.1757 55 48.4559 55 46.342V8.65789C55 6.54404 53.2924 4.82422 51.1936 4.82422ZM2.14844 8.65789C2.14844 7.72869 2.89223 6.97266 3.80639 6.97266H51.1936C52.1078 6.97266 52.8516 7.72858 52.8516 8.65789V12.9296H2.14844V8.65789ZM52.8516 46.3419C52.8516 47.2711 52.1078 48.0271 51.1936 48.0271H3.80639C2.89223 48.0271 2.14844 47.2712 2.14844 46.3419V15.078H52.8516V46.3419Z" fill="#7B56EE"/>
<path d="M8.90465 8.87695H7.42351C6.83022 8.87695 6.3493 9.35799 6.3493 9.95117C6.3493 10.5444 6.83022 11.0254 7.42351 11.0254H8.90454C9.49783 11.0254 9.97876 10.5444 9.97876 9.95117C9.97886 9.35788 9.49783 8.87695 8.90465 8.87695Z" fill="#7B56EE"/>
<path d="M15.0345 8.87695H13.5534C12.9601 8.87695 12.4792 9.35799 12.4792 9.95117C12.4792 10.5444 12.9601 11.0254 13.5534 11.0254H15.0344C15.6277 11.0254 16.1086 10.5444 16.1086 9.95117C16.1087 9.35788 15.6277 8.87695 15.0345 8.87695Z" fill="#7B56EE"/>
<path d="M21.1644 8.87695H19.6832C19.0899 8.87695 18.609 9.35799 18.609 9.95117C18.609 10.5444 19.0899 11.0254 19.6832 11.0254H21.1644C21.7577 11.0254 22.2386 10.5444 22.2386 9.95117C22.2386 9.35788 21.7577 8.87695 21.1644 8.87695Z" fill="#7B56EE"/>
<path d="M47.5765 8.87695H42.3197C41.7264 8.87695 41.2455 9.35799 41.2455 9.95117C41.2455 10.5444 41.7264 11.0254 42.3197 11.0254H47.5765C48.1698 11.0254 48.6507 10.5444 48.6507 9.95117C48.6507 9.35788 48.1698 8.87695 47.5765 8.87695Z" fill="#7B56EE"/>
<path d="M27.5 40.4213C32.144 40.4213 35.9221 36.6432 35.9221 31.9992C35.9221 27.3553 32.144 23.5771 27.5 23.5771C22.8561 23.5771 19.0779 27.3553 19.0779 31.9992C19.0779 36.6432 22.8561 40.4213 27.5 40.4213ZM27.5 25.7255C30.9593 25.7255 33.7737 28.5398 33.7737 31.9991C33.7737 35.4584 30.9593 38.2729 27.5 38.2729C24.0407 38.2729 21.2264 35.4586 21.2264 31.9992C21.2264 28.5399 24.0407 25.7255 27.5 25.7255Z" fill="#7B56EE"/>
<path d="M29.7833 32.0596H30.4621C31.0554 32.0596 31.5363 31.5785 31.5363 30.9854C31.5363 30.3922 31.0554 29.9111 30.4621 29.9111H29.7833C29.19 29.9111 28.7091 30.3922 28.7091 30.9854C28.7091 31.5786 29.19 32.0596 29.7833 32.0596Z" fill="#7B56EE"/>
</g>
<defs>
<clipPath id="clip0">
<rect width="55" height="55" fill="white"/>
</clipPath>
</defs>
</svg>
